<svg xmlns="http://www.w3.org/2000/svg" height="100px" viewBox="0 0 479.5 549.19"><path style="fill-rule:evenodd;fill:#000" d="M420 832.36c-54.68 9.41-65.28 9.33-120 0s-51.44-14.33-38.88-37.31c25.89-47.38 68.81-131.54 88.88-202.69 8.79-31.17.1-50.52 0-60-.55-49.82-148.2-135.9-120-150 10.99-5.49 25.01-9.98 40.81-13.47 70.46-15.52 176.52-11.03 209.19 13.47 25.23 18.92-112.51 100.96-110 150 .54 10.54-8.93 28.64 0 60 20.34 71.47 62.9 155.08 88.71 202.36 12.66 23.19 15.97 28.23-38.71 37.64z" transform="translate(-140 -290.2)"/><path style="fill-rule:evenodd;fill:#000" d="M427.66 806.73c-30 5-35 30 10 20s59.05 6.55 88.9-3.87c52.45-18.3 80.75-99.91 90-140 15.1-65.36-30-110-90-110-63.24 0-80 70-50 110 8.49 11.32 50 40 90 20s10-50 0-40c-9.13 9.13-20 40-60 20s-20-80 20-80c29.69 0 90 30 80 80-6.92 34.63-37.55 131.7-93.9 133.87-50.21 1.92-55-15-85-10zM299.99 371.84c14.73 23.42-38.9 2.08-59.99 10.52-25 10-3.32-3.83.01-10.38 9.99-19.62-10.01-39.62-.01-79.62.78-3.11 8-2.64 10 0 18 23.85 33.33 52.99 49.99 79.48zM410 371.84c-14.73 23.42 38.9 2.08 59.99 10.52 25 10 3.33-3.83-.01-10.38-9.99-19.62 10.01-39.62.01-79.62-.78-3.11-8-2.64-10 0-18 23.85-33.33 52.99-49.99 79.48z" transform="translate(-140 -290.2)"/><path style="fill-rule:evenodd;fill:#ffff6d" d="M361.66 388.25c9.17 24.11 19.17 54.11 98.34 0h-98.34z" transform="translate(-140 -290.2)"/><path style="fill-rule:evenodd;fill:#000" d="M390.83 390.97c-4.4 10.7-4.4 10.7 0 21.39 4.4-10.69 4.4-10.69 0-21.39z" transform="translate(-140 -290.2)"/><path style="fill-rule:evenodd;fill:#ffff6d" d="M350 388.25c-9.17 24.11-19.17 54.11-98.34 0H350z" transform="translate(-140 -290.2)"/><path style="fill-rule:evenodd;fill:#000" d="M320.83 390.97c4.4 10.7 4.4 10.7 0 21.39-4.4-10.69-4.4-10.69 0-21.39z" transform="translate(-140 -290.2)"/><path style="fill-rule:evenodd;fill:#fff" d="M365.01 427.36c-.5-.56-14.51-.56-15.01 0s6.5 11.17 7.5 11.17 8.01-10.61 7.51-11.17z" transform="translate(-140 -290.2)"/><path style="fill-rule:evenodd;fill:#000" d="M319.32 447.36v5c-75-10-106.77-55.49-175-10-3 2-8 0 0-5 66.23-41.39 85 0 175 10z" transform="translate(-140 -290.2)"/><path style="fill-rule:evenodd;fill:#000" d="M329.32 457.36v5c-75-10-106.77-55.49-175-10-3 2-8 0 0-5 66.23-41.39 85 0 175 10zM400 447.36v5c75-10 106.77-55.49 175-10 3 2 8 0 0-5-66.23-41.39-85 0-175 10z" transform="translate(-140 -290.2)"/><path style="fill-rule:evenodd;fill:#000" d="M390 457.36v5c75-10 106.77-55.49 175-10 3 2 8 0 0-5-66.23-41.39-85 0-175 10z" transform="translate(-140 -290.2)"/></svg>