<?xml version="1.0" encoding="UTF-8"?>
<svg width="672" height="713" version="1.1" viewBox="0 0 178 189" xmlns="http://www.w3.org/2000/svg">
 <g transform="matrix(.371 0 0 .371 -22.2 -22.5)" fill="#fff" stroke-linecap="round" stroke-miterlimit="10" stroke-width="2">
  <path transform="matrix(.714 0 0 .714 49.5 54.5)" d="m289 500-61.4 156a336 336 0 0 0 97.7 22.3l-3.14 41.9a378 378 0 0 0 56.5 0l-3.14-41.9a336 336 0 0 0 97.7-22.3l-61.4-156h-8e-3a168 168 0 0 1-123 0zm14.7 48.3a210 210 0 0 0 93.5 0h6e-3l18.7 81.9a294 294 0 0 1-43.5 6.55l-3.14-41.9a252 252 0 0 1-37.7 0l-3.14 41.9a294 294 0 0 1-43.5-6.55z"/>
  <path d="m225 430-45 77.9a240 240 0 0 1-29.6-20.2l37.4-46.9a180 180 0 0 1-19.7-18.3l-44 40.8a240 240 0 0 1-22.4-28l49.6-33.8a180 180 0 0 1-13.4-23.3l-54.1 26a240 240 0 0 1-13.1-33.4l86-26.5a150 150 0 0 0 68.3 85.7" paint-order="fill stroke markers"/>
  <path d="m152 322-89 13.4a240 240 0 0 1-2.68-35.8h60a180 180 0 0 1 2.01-26.8l-59.3-8.94a240 240 0 0 1 7.98-35l57.3 17.7a180 180 0 0 1 9.83-25l-54.1-26h1e-6a240 240 0 0 1 17.9-31.1l74.4 50.7a150 150 0 0 0-24.4 107" paint-order="fill stroke markers"/>
  <path d="m190 198-66-61.2a240 240 0 0 1 26.3-24.4l37.4 46.9a180 180 0 0 1 22.2-15.2l-30-52v-1e-6a240 240 0 0 1 32.3-15.6l21.9 55.9h1e-5a180 180 0 0 1 25.7-7.93l-13.4-58.5h1e-5a240 240 0 0 1 35.5-5.35l6.73 89.8a150 150 0 0 0-98.8 47.6" paint-order="fill stroke markers"/>
  <path d="m311 150 6.73-89.8a240 240 0 0 1 35.5 5.35l-13.4 58.5a180 180 0 0 1 25.7 7.93l21.9-55.8h1e-5a240 240 0 0 1 32.3 15.6l-30 52a180 180 0 0 1 22.2 15.2l37.4-46.9a240 240 0 0 1 26.3 24.4l-66 61.2a150 150 0 0 0-98.8-47.6" paint-order="fill stroke markers"/>
  <path d="m424 216 74.4-50.7 1e-5 1e-5a240 240 0 0 1 17.9 31.1l-54.1 26a180 180 0 0 1 9.83 25l57.3-17.7a240 240 0 0 1 7.98 106l-89-13.4a150 150 0 0 0 1.68-22.4h60a210 210 0 0 0-2.35-31.3l-59.3 8.94a150 150 0 0 0-24.4-62.1" paint-order="fill stroke markers"/>
  <path d="m443 344 28.7 8.84a180 180 0 0 1-23.3 48.3l49.6 33.8a240 240 0 0 1-22.4 28l-44-40.8a180 180 0 0 1-19.7 18.3l18.7 23.4a210 210 0 0 1-25.9 17.7l-30-52a150 150 0 0 0 68.3-85.7" paint-order="fill stroke markers"/>
 </g>
</svg>
