<?xml version="1.0" encoding="UTF-8"?>
<svg width="600" height="364" version="1.1" viewBox="0 0 159 96.2" xmlns="http://www.w3.org/2000/svg" class="svgshadow">
 <g transform="matrix(.885 0 0 .885 -18.9 -20.4)" fill="none" stroke="#fff" stroke-linecap="round" stroke-linejoin="round" stroke-width=".75" aria-label="Hello World! I Am David,  Web Developer, Musician,  And Digital Artist.">
  <path d="m25.9 25v4.34h6.62v-4.34q0-0.93 0.413-1.4 0.424-0.465 1.11-0.465 0.692 0 1.12 0.465 0.434 0.455 0.434 1.4v11.9q0 0.941-0.434 1.41-0.434 0.465-1.12 0.465-0.692 0-1.11-0.465-0.413-0.475-0.413-1.41v-5.1h-6.62v5.1q0 0.941-0.434 1.41-0.434 0.465-1.12 0.465-0.692 0-1.11-0.465-0.413-0.475-0.413-1.41v-11.9q0-0.93 0.403-1.4 0.413-0.465 1.12-0.465 0.692 0 1.12 0.465 0.434 0.455 0.434 1.4z"/>
  <path d="m46.6 33.8h-5.52q0.0103 0.961 0.382 1.69 0.382 0.734 1 1.11 0.63 0.372 1.38 0.372 0.506 0 0.92-0.114 0.424-0.124 0.816-0.372 0.393-0.258 0.723-0.548 0.331-0.289 0.858-0.785 0.217-0.186 0.62-0.186 0.434 0 0.703 0.238t0.269 0.672q0 0.382-0.3 0.899-0.3 0.506-0.91 0.982-0.599 0.465-1.52 0.775-0.91 0.31-2.1 0.31-2.72 0-4.23-1.55t-1.51-4.21q0-1.25 0.372-2.32t1.09-1.84q0.713-0.765 1.76-1.17 1.04-0.413 2.32-0.413 1.65 0 2.83 0.703 1.19 0.692 1.78 1.8 0.589 1.11 0.589 2.25 0 1.06-0.61 1.38-0.61 0.31-1.72 0.31zm-5.52-1.6h5.12q-0.103-1.45-0.785-2.16-0.672-0.723-1.78-0.723-1.05 0-1.74 0.734-0.672 0.723-0.816 2.15z"/>
  <path d="m51.3 37.1v-12.2q0-0.847 0.372-1.28 0.382-0.434 1.02-0.434 0.641 0 1.03 0.434 0.393 0.424 0.393 1.28v12.2q0 0.858-0.403 1.29-0.393 0.424-1.02 0.424-0.62 0-1.01-0.444-0.382-0.444-0.382-1.27z"/>
  <path d="m57 37.1v-12.2q0-0.847 0.372-1.28 0.382-0.434 1.02-0.434t1.03 0.434q0.393 0.424 0.393 1.28v12.2q0 0.858-0.403 1.29-0.393 0.424-1.02 0.424-0.62 0-1.01-0.444-0.382-0.444-0.382-1.27z"/>
  <path d="m73.3 33.1q0 1.26-0.393 2.33-0.393 1.06-1.14 1.83-0.744 0.765-1.78 1.18-1.03 0.403-2.33 0.403-1.28 0-2.3-0.413t-1.78-1.18q-0.744-0.775-1.14-1.82-0.382-1.05-0.382-2.33t0.393-2.35q0.393-1.06 1.13-1.82 0.734-0.754 1.78-1.16 1.04-0.413 2.3-0.413 1.28 0 2.33 0.413 1.04 0.413 1.79 1.18 0.744 0.765 1.13 1.82 0.393 1.05 0.393 2.33zm-2.83 0q0-1.73-0.765-2.69-0.754-0.961-2.04-0.961-0.827 0-1.46 0.434-0.63 0.424-0.972 1.26-0.341 0.837-0.341 1.95 0 1.11 0.331 1.93 0.341 0.827 0.961 1.27 0.63 0.434 1.48 0.434 1.28 0 2.04-0.961 0.765-0.972 0.765-2.68z"/>
  <path d="m91.8 36.2-2.45-9.08-2.48 9.08q-0.289 1.03-0.465 1.49-0.165 0.444-0.589 0.806-0.424 0.351-1.13 0.351-0.568 0-0.941-0.217-0.362-0.207-0.589-0.589-0.227-0.393-0.372-0.92-0.145-0.537-0.258-0.992l-2.52-10.2q-0.227-0.889-0.227-1.35 0-0.589 0.413-0.992t1.02-0.403q0.837 0 1.13 0.537 0.289 0.537 0.506 1.56l1.98 8.85 2.22-8.28q0.248-0.951 0.444-1.45 0.196-0.496 0.641-0.858 0.444-0.362 1.21-0.362 0.775 0 1.2 0.382 0.434 0.372 0.599 0.816t0.444 1.47l2.24 8.28 1.98-8.85q0.145-0.692 0.269-1.09 0.134-0.393 0.444-0.703 0.32-0.31 0.92-0.31t1.01 0.403q0.424 0.393 0.424 0.992 0 0.424-0.227 1.35l-2.52 10.2q-0.258 1.03-0.434 1.52-0.165 0.475-0.579 0.837-0.403 0.362-1.15 0.362-0.703 0-1.13-0.351-0.424-0.351-0.589-0.785-0.165-0.444-0.465-1.51z"/>
  <path d="m111 33.1q0 1.26-0.393 2.33t-1.14 1.83q-0.744 0.765-1.78 1.18-1.03 0.403-2.33 0.403-1.28 0-2.3-0.413t-1.78-1.18q-0.744-0.775-1.14-1.82-0.382-1.05-0.382-2.33t0.393-2.35q0.393-1.06 1.13-1.82 0.734-0.754 1.78-1.16 1.04-0.413 2.3-0.413 1.28 0 2.33 0.413 1.04 0.413 1.79 1.18 0.744 0.765 1.13 1.82 0.393 1.05 0.393 2.33zm-2.83 0q0-1.73-0.765-2.69-0.754-0.961-2.04-0.961-0.827 0-1.46 0.434-0.63 0.424-0.972 1.26-0.341 0.837-0.341 1.95 0 1.11 0.331 1.93 0.341 0.827 0.961 1.27 0.63 0.434 1.48 0.434 1.28 0 2.04-0.961 0.765-0.972 0.765-2.68z"/>
  <path d="m116 34.7v2.36q0 0.858-0.403 1.29-0.403 0.424-1.02 0.424-0.61 0-1-0.434-0.393-0.434-0.393-1.28v-7.85q0-1.9 1.37-1.9 0.703 0 1.01 0.444t0.341 1.31q0.506-0.868 1.03-1.31 0.537-0.444 1.43-0.444 0.889 0 1.73 0.444t0.837 1.18q0 0.517-0.362 0.858-0.351 0.331-0.765 0.331-0.155 0-0.754-0.186-0.589-0.196-1.04-0.196-0.62 0-1.01 0.331-0.393 0.32-0.61 0.961t-0.3 1.53q-0.0827 0.879-0.0827 2.15z"/>
  <path d="m122 37.1v-12.2q0-0.847 0.372-1.28 0.382-0.434 1.02-0.434t1.03 0.434q0.393 0.424 0.393 1.28v12.2q0 0.858-0.403 1.29-0.393 0.424-1.02 0.424-0.62 0-1.01-0.444-0.382-0.444-0.382-1.27z"/>
  <path d="m135 37.2v-0.279q-0.568 0.651-1.13 1.06-0.548 0.403-1.2 0.61-0.641 0.217-1.41 0.217-1.01 0-1.88-0.424-0.858-0.434-1.49-1.23-0.63-0.796-0.961-1.87-0.32-1.07-0.32-2.33 0-2.65 1.29-4.12t3.4-1.48q1.22 0 2.06 0.424 0.837 0.413 1.63 1.28v-4.17q0-0.868 0.341-1.31 0.351-0.444 0.992-0.444t0.982 0.413q0.351 0.403 0.351 1.2v12.4q0 0.806-0.372 1.21-0.372 0.403-0.961 0.403-0.579 0-0.961-0.413-0.372-0.424-0.372-1.2zm-5.55-4.14q0 1.15 0.351 1.95 0.362 0.806 0.982 1.22 0.62 0.403 1.35 0.403 0.744 0 1.35-0.382 0.62-0.393 0.982-1.19 0.372-0.806 0.372-2.01 0-1.13-0.372-1.93-0.362-0.816-0.992-1.24-0.62-0.434-1.36-0.434-0.775 0-1.38 0.444-0.61 0.434-0.951 1.26-0.331 0.816-0.331 1.9z"/>
  <path d="m142 32-0.331-4.95q-0.093-1.45-0.093-2.08 0-0.858 0.444-1.33 0.455-0.486 1.19-0.486 0.889 0 1.19 0.62 0.3 0.61 0.3 1.77 0 0.682-0.0724 1.38l-0.444 5.1q-0.0724 0.91-0.31 1.4-0.238 0.486-0.785 0.486-0.558 0-0.775-0.465-0.217-0.475-0.31-1.44zm1.15 6.8q-0.63 0-1.11-0.403-0.465-0.413-0.465-1.15 0-0.641 0.444-1.09 0.455-0.455 1.11-0.455 0.651 0 1.11 0.455 0.465 0.444 0.465 1.09 0 0.723-0.465 1.14-0.465 0.413-1.09 0.413z"/>
  <path d="m22.9 59.2v-11.9q0-0.93 0.424-1.4 0.424-0.465 1.1-0.465 0.692 0 1.12 0.465 0.434 0.455 0.434 1.4v11.9q0 0.941-0.434 1.41-0.424 0.465-1.12 0.465-0.661 0-1.1-0.465-0.424-0.475-0.424-1.41z"/>
  <path d="m44.4 59.1-0.723-1.9h-6.16l-0.723 1.94q-0.424 1.14-0.723 1.54-0.3 0.393-0.982 0.393-0.579 0-1.02-0.424-0.444-0.424-0.444-0.961 0-0.31 0.103-0.641t0.341-0.92l3.88-9.84q0.165-0.424 0.393-1.01 0.238-0.599 0.496-0.992 0.269-0.393 0.692-0.63 0.434-0.248 1.06-0.248 0.641 0 1.06 0.248 0.434 0.238 0.692 0.62 0.269 0.382 0.444 0.827 0.186 0.434 0.465 1.17l3.96 9.78q0.465 1.12 0.465 1.62 0 0.527-0.444 0.972-0.434 0.434-1.05 0.434-0.362 0-0.62-0.134-0.258-0.124-0.434-0.341-0.176-0.227-0.382-0.682-0.196-0.465-0.341-0.816zm-6.08-4.21h4.53l-2.28-6.25z"/>
  <path d="m59.1 55.5v3.75q0 0.889-0.403 1.33t-1.06 0.444q-0.641 0-1.04-0.444-0.393-0.444-0.393-1.33v-4.5q0-1.06-0.0724-1.65t-0.393-0.961q-0.32-0.382-1.01-0.382-1.38 0-1.83 0.951-0.434 0.951-0.434 2.73v3.81q0 0.879-0.403 1.33-0.393 0.444-1.04 0.444-0.641 0-1.05-0.444-0.403-0.455-0.403-1.33v-8.07q0-0.796 0.362-1.21 0.372-0.413 0.972-0.413 0.579 0 0.961 0.393 0.393 0.382 0.393 1.06v0.269q0.734-0.879 1.57-1.29 0.837-0.413 1.86-0.413 1.06 0 1.83 0.424 0.765 0.424 1.26 1.28 0.713-0.868 1.53-1.28 0.816-0.424 1.81-0.424 1.16 0 1.99 0.455 0.837 0.455 1.25 1.3 0.362 0.765 0.362 2.41v5.51q0 0.889-0.403 1.33-0.403 0.444-1.06 0.444-0.641 0-1.05-0.444-0.403-0.455-0.403-1.33v-4.74q0-0.91-0.0827-1.46-0.0724-0.548-0.413-0.92-0.341-0.372-1.03-0.372-0.558 0-1.06 0.331-0.496 0.331-0.775 0.889-0.31 0.713-0.31 2.52z"/>
  <path d="m75.9 45.6h4q1.56 0 2.68 0.289t2.03 1.09q2.37 2.03 2.37 6.16 0 1.36-0.238 2.49t-0.734 2.04q-0.496 0.899-1.27 1.61-0.61 0.548-1.33 0.878-0.723 0.331-1.56 0.465-0.827 0.134-1.87 0.134h-4q-0.837 0-1.26-0.248-0.424-0.258-0.558-0.713-0.124-0.465-0.124-1.2v-11.1q0-0.992 0.444-1.44t1.44-0.444zm1.19 2.43v10.3h2.33q0.765 0 1.2-0.0413 0.434-0.0413 0.899-0.207 0.465-0.165 0.806-0.465 1.54-1.3 1.54-4.49 0-2.24-0.682-3.36-0.672-1.12-1.66-1.42-0.992-0.31-2.4-0.31z"/>
  <path d="m96.6 59.4q-1.02 0.796-1.98 1.2-0.951 0.393-2.14 0.393-1.09 0-1.91-0.424-0.816-0.434-1.26-1.17-0.444-0.734-0.444-1.59 0-1.16 0.734-1.97 0.734-0.816 2.02-1.1 0.269-0.062 1.33-0.279 1.06-0.217 1.82-0.393 0.765-0.186 1.65-0.444-0.0517-1.12-0.455-1.63-0.393-0.527-1.64-0.527-1.07 0-1.62 0.3-0.537 0.3-0.93 0.899-0.382 0.599-0.548 0.796-0.155 0.186-0.682 0.186-0.475 0-0.827-0.3-0.341-0.31-0.341-0.785 0-0.744 0.527-1.45 0.527-0.703 1.64-1.16t2.78-0.455q1.86 0 2.92 0.444 1.06 0.434 1.5 1.38 0.444 0.951 0.444 2.52 0 0.992-0.0103 1.68 0 0.692-0.0103 1.54 0 0.796 0.258 1.66 0.269 0.858 0.269 1.11 0 0.434-0.413 0.796-0.403 0.351-0.92 0.351-0.434 0-0.858-0.403-0.424-0.413-0.899-1.19zm-0.186-4.08q-0.62 0.227-1.81 0.486-1.18 0.248-1.63 0.372-0.455 0.114-0.868 0.465-0.413 0.341-0.413 0.961 0 0.641 0.486 1.1 0.486 0.444 1.27 0.444 0.837 0 1.54-0.362 0.713-0.372 1.04-0.951 0.382-0.641 0.382-2.11z"/>
  <path d="m103 51.3 2.28 6.41 2.46-6.69q0.289-0.806 0.568-1.14 0.279-0.341 0.848-0.341 0.537 0 0.91 0.362 0.382 0.362 0.382 0.837 0 0.186-0.0724 0.434-0.062 0.248-0.155 0.465-0.0827 0.217-0.196 0.496l-2.71 6.72q-0.114 0.289-0.3 0.734-0.176 0.444-0.403 0.765-0.217 0.31-0.548 0.486-0.32 0.176-0.785 0.176-0.599 0-0.961-0.269-0.351-0.279-0.527-0.599-0.165-0.331-0.568-1.29l-2.69-6.65q-0.093-0.248-0.196-0.496-0.093-0.248-0.165-0.506-0.062-0.258-0.062-0.444 0-0.289 0.176-0.568 0.176-0.289 0.486-0.465 0.31-0.186 0.672-0.186 0.703 0 0.961 0.403 0.269 0.403 0.589 1.35z"/>
  <path d="m116 51.2v8.15q0 0.847-0.403 1.28-0.403 0.434-1.02 0.434t-1.01-0.444q-0.382-0.444-0.382-1.27v-8.07q0-0.837 0.382-1.26 0.393-0.424 1.01-0.424t1.02 0.424 0.403 1.18zm-1.4-2.91q-0.589 0-1.01-0.362-0.413-0.362-0.413-1.02 0-0.599 0.424-0.982 0.434-0.393 1-0.393 0.548 0 0.972 0.351t0.424 1.02q0 0.651-0.413 1.02-0.413 0.362-0.982 0.362z"/>
  <path d="m126 59.4v-0.279q-0.568 0.651-1.13 1.06-0.548 0.403-1.2 0.61-0.641 0.217-1.41 0.217-1.01 0-1.88-0.424-0.858-0.434-1.49-1.23-0.63-0.796-0.961-1.87-0.32-1.07-0.32-2.33 0-2.65 1.29-4.12 1.29-1.48 3.4-1.48 1.22 0 2.06 0.424 0.837 0.413 1.63 1.28v-4.17q0-0.868 0.341-1.31 0.351-0.444 0.992-0.444t0.982 0.413q0.351 0.403 0.351 1.2v12.4q0 0.806-0.372 1.21t-0.961 0.403q-0.579 0-0.961-0.413-0.372-0.424-0.372-1.2zm-5.55-4.14q0 1.15 0.351 1.95 0.362 0.806 0.982 1.22 0.62 0.403 1.35 0.403 0.744 0 1.35-0.382 0.62-0.393 0.982-1.19 0.372-0.806 0.372-2.01 0-1.13-0.372-1.93-0.362-0.816-0.992-1.24-0.62-0.434-1.36-0.434-0.775 0-1.38 0.444-0.61 0.434-0.951 1.26-0.331 0.816-0.331 1.9z"/>
  <path d="m134 61.1q-0.682 0-1.18-0.413-0.496-0.424-0.496-1.18 0-0.651 0.486-1.1t1.15-0.444q0.496 0 0.899 0.269t0.63 0.796q0.227 0.517 0.227 1.28 0 1.02-0.434 1.91-0.434 0.899-1.06 1.42-0.62 0.527-1.13 0.527-0.32 0-0.527-0.217-0.196-0.207-0.196-0.486 0-0.424 0.424-0.682 1.21-0.672 1.21-1.68z"/>
  <path d="m33.5 80.6-2.45-9.08-2.48 9.08q-0.289 1.03-0.465 1.49-0.165 0.444-0.589 0.806-0.424 0.351-1.13 0.351-0.568 0-0.941-0.217-0.362-0.207-0.589-0.589-0.227-0.393-0.372-0.92-0.145-0.537-0.258-0.992l-2.52-10.2q-0.227-0.889-0.227-1.35 0-0.589 0.413-0.992t1.02-0.403q0.837 0 1.13 0.537 0.289 0.537 0.506 1.56l1.98 8.85 2.22-8.28q0.248-0.951 0.444-1.45 0.196-0.496 0.641-0.858 0.444-0.362 1.21-0.362 0.775 0 1.2 0.382 0.434 0.372 0.599 0.816t0.444 1.47l2.24 8.28 1.98-8.85q0.145-0.692 0.269-1.09 0.134-0.393 0.444-0.703 0.32-0.31 0.92-0.31 0.599 0 1.01 0.403 0.424 0.393 0.424 0.992 0 0.424-0.227 1.35l-2.52 10.2q-0.258 1.03-0.434 1.52-0.165 0.475-0.579 0.837-0.403 0.362-1.15 0.362-0.703 0-1.13-0.351-0.424-0.351-0.589-0.785-0.165-0.444-0.465-1.51z"/>
  <path d="m49.8 78.2h-5.52q0.0103 0.961 0.382 1.69 0.382 0.734 1 1.11 0.63 0.372 1.38 0.372 0.506 0 0.92-0.114 0.424-0.124 0.816-0.372 0.393-0.258 0.723-0.548 0.331-0.289 0.858-0.785 0.217-0.186 0.62-0.186 0.434 0 0.703 0.238t0.269 0.672q0 0.382-0.3 0.899-0.3 0.506-0.91 0.982-0.599 0.465-1.52 0.775-0.91 0.31-2.1 0.31-2.72 0-4.23-1.55t-1.51-4.21q0-1.25 0.372-2.32t1.09-1.84q0.713-0.765 1.76-1.17 1.04-0.413 2.32-0.413 1.65 0 2.83 0.703 1.19 0.692 1.78 1.8 0.589 1.11 0.589 2.25 0 1.06-0.61 1.38-0.61 0.31-1.72 0.31zm-5.52-1.6h5.12q-0.103-1.45-0.785-2.16-0.672-0.723-1.78-0.723-1.05 0-1.74 0.734-0.672 0.723-0.816 2.15z"/>
  <path d="m56.9 69.2v4.31q0.796-0.827 1.62-1.26 0.827-0.444 2.05-0.444 1.41 0 2.46 0.672 1.06 0.661 1.64 1.93 0.589 1.26 0.589 3 0 1.28-0.331 2.36-0.32 1.06-0.941 1.85t-1.51 1.22q-0.879 0.424-1.94 0.424-0.651 0-1.23-0.155-0.568-0.155-0.972-0.403-0.403-0.258-0.692-0.527-0.279-0.269-0.744-0.806v0.279q0 0.796-0.382 1.21-0.382 0.403-0.972 0.403-0.599 0-0.961-0.403-0.351-0.413-0.351-1.21v-12.3q0-0.858 0.341-1.29 0.351-0.444 0.972-0.444 0.651 0 1 0.424 0.351 0.413 0.351 1.19zm0.134 8.38q0 1.68 0.765 2.59 0.775 0.899 2.03 0.899 1.06 0 1.83-0.92 0.775-0.93 0.775-2.66 0-1.12-0.32-1.92t-0.91-1.24q-0.589-0.444-1.37-0.444-0.806 0-1.44 0.444-0.63 0.434-0.992 1.27-0.362 0.827-0.362 1.97z"/>
  <path d="m74.9 67.9h4q1.56 0 2.68 0.289t2.03 1.09q2.37 2.03 2.37 6.16 0 1.36-0.238 2.49t-0.734 2.04q-0.496 0.899-1.27 1.61-0.61 0.548-1.33 0.879-0.723 0.331-1.56 0.465-0.827 0.134-1.87 0.134h-4q-0.837 0-1.26-0.248-0.424-0.258-0.558-0.713-0.124-0.465-0.124-1.2v-11.1q0-0.992 0.444-1.44t1.44-0.444zm1.19 2.43v10.3h2.33q0.765 0 1.2-0.0413t0.899-0.207q0.465-0.165 0.806-0.465 1.54-1.3 1.54-4.49 0-2.24-0.682-3.36-0.672-1.12-1.66-1.42-0.992-0.31-2.4-0.31z"/>
  <path d="m96.3 78.2h-5.52q0.0103 0.961 0.382 1.69 0.382 0.734 1 1.11 0.63 0.372 1.38 0.372 0.506 0 0.92-0.114 0.424-0.124 0.816-0.372 0.393-0.258 0.723-0.548 0.331-0.289 0.858-0.785 0.217-0.186 0.62-0.186 0.434 0 0.703 0.238t0.269 0.672q0 0.382-0.3 0.899-0.3 0.506-0.91 0.982-0.599 0.465-1.52 0.775-0.91 0.31-2.1 0.31-2.72 0-4.23-1.55t-1.51-4.21q0-1.25 0.372-2.32t1.09-1.84q0.713-0.765 1.76-1.17 1.04-0.413 2.32-0.413 1.65 0 2.83 0.703 1.19 0.692 1.78 1.8 0.589 1.11 0.589 2.25 0 1.06-0.61 1.38-0.61 0.31-1.72 0.31zm-5.52-1.6h5.12q-0.103-1.45-0.785-2.16-0.672-0.723-1.78-0.723-1.05 0-1.74 0.734-0.672 0.723-0.816 2.15z"/>
  <path d="m102 73.5 2.28 6.41 2.46-6.69q0.289-0.806 0.568-1.14 0.279-0.341 0.847-0.341 0.537 0 0.91 0.362 0.382 0.362 0.382 0.837 0 0.186-0.0723 0.434-0.062 0.248-0.155 0.465-0.0827 0.217-0.196 0.496l-2.71 6.72q-0.114 0.289-0.3 0.734-0.176 0.444-0.403 0.765-0.217 0.31-0.548 0.486-0.32 0.176-0.785 0.176-0.599 0-0.961-0.269-0.351-0.279-0.527-0.599-0.165-0.331-0.568-1.29l-2.69-6.65q-0.093-0.248-0.196-0.496-0.093-0.248-0.165-0.506-0.062-0.258-0.062-0.444 0-0.289 0.176-0.568 0.176-0.289 0.486-0.465 0.31-0.186 0.672-0.186 0.703 0 0.961 0.403 0.269 0.403 0.589 1.35z"/>
  <path d="m120 78.2h-5.52q0.0103 0.961 0.382 1.69 0.382 0.734 1 1.11 0.63 0.372 1.38 0.372 0.506 0 0.92-0.114 0.424-0.124 0.816-0.372 0.393-0.258 0.723-0.548 0.331-0.289 0.858-0.785 0.217-0.186 0.62-0.186 0.434 0 0.703 0.238t0.269 0.672q0 0.382-0.3 0.899-0.3 0.506-0.91 0.982-0.599 0.465-1.52 0.775-0.91 0.31-2.1 0.31-2.72 0-4.23-1.55t-1.51-4.21q0-1.25 0.372-2.32t1.09-1.84q0.713-0.765 1.76-1.17 1.04-0.413 2.32-0.413 1.65 0 2.83 0.703 1.19 0.692 1.78 1.8 0.589 1.11 0.589 2.25 0 1.06-0.61 1.38-0.61 0.31-1.72 0.31zm-5.52-1.6h5.12q-0.103-1.45-0.785-2.16-0.672-0.723-1.78-0.723-1.05 0-1.74 0.734-0.672 0.723-0.816 2.15z"/>
  <path d="m124 81.5v-12.2q0-0.847 0.372-1.28 0.382-0.434 1.02-0.434t1.03 0.434q0.393 0.424 0.393 1.28v12.2q0 0.858-0.403 1.29-0.393 0.424-1.02 0.424-0.62 0-1.01-0.444-0.382-0.444-0.382-1.27z"/>
  <path d="m141 77.5q0 1.26-0.393 2.33t-1.14 1.83q-0.744 0.765-1.78 1.18-1.03 0.403-2.33 0.403-1.28 0-2.3-0.413t-1.78-1.18q-0.744-0.775-1.14-1.82-0.382-1.05-0.382-2.33t0.393-2.35 1.13-1.82q0.734-0.754 1.78-1.16 1.04-0.413 2.3-0.413 1.28 0 2.33 0.413 1.04 0.413 1.79 1.18 0.744 0.765 1.13 1.82 0.393 1.05 0.393 2.33zm-2.83 0q0-1.73-0.765-2.69-0.754-0.961-2.04-0.961-0.827 0-1.46 0.434-0.63 0.424-0.972 1.26-0.341 0.837-0.341 1.95 0 1.11 0.331 1.93 0.341 0.827 0.961 1.27 0.63 0.434 1.48 0.434 1.28 0 2.04-0.961 0.765-0.972 0.765-2.68z"/>
  <path d="m145 73.4v0.341q0.796-0.982 1.65-1.44 0.858-0.465 1.94-0.465 1.3 0 2.4 0.672t1.73 1.96q0.641 1.29 0.641 3.06 0 1.3-0.372 2.4-0.362 1.09-1 1.83-0.641 0.734-1.52 1.14-0.868 0.393-1.87 0.393-1.21 0-2.04-0.486-0.816-0.486-1.56-1.43v4.24q0 1.86-1.35 1.86-0.796 0-1.05-0.486-0.258-0.475-0.258-1.4v-12.2q0-0.806 0.351-1.2 0.351-0.403 0.961-0.403 0.599 0 0.972 0.413 0.382 0.403 0.382 1.17zm5.53 4.1q0-1.12-0.341-1.91-0.341-0.806-0.951-1.23-0.599-0.434-1.33-0.434-1.17 0-1.97 0.92-0.796 0.92-0.796 2.71 0 1.68 0.796 2.63 0.796 0.93 1.97 0.93 0.703 0 1.3-0.403 0.599-0.413 0.961-1.23 0.362-0.816 0.362-1.97z"/>
  <path d="m164 78.2h-5.52q0.0103 0.961 0.382 1.69 0.382 0.734 1 1.11 0.63 0.372 1.38 0.372 0.506 0 0.92-0.114 0.424-0.124 0.816-0.372 0.393-0.258 0.723-0.548 0.331-0.289 0.858-0.785 0.217-0.186 0.62-0.186 0.434 0 0.703 0.238t0.269 0.672q0 0.382-0.3 0.899-0.3 0.506-0.91 0.982-0.599 0.465-1.52 0.775-0.91 0.31-2.1 0.31-2.72 0-4.23-1.55t-1.51-4.21q0-1.25 0.372-2.32t1.09-1.84q0.713-0.765 1.76-1.17 1.04-0.413 2.32-0.413 1.65 0 2.83 0.703 1.19 0.692 1.78 1.8 0.589 1.11 0.589 2.25 0 1.06-0.61 1.38-0.61 0.31-1.72 0.31zm-5.52-1.6h5.12q-0.103-1.45-0.785-2.16-0.672-0.723-1.78-0.723-1.05 0-1.74 0.734-0.672 0.723-0.816 2.15z"/>
  <path d="m171 79.2v2.36q0 0.858-0.403 1.29-0.403 0.424-1.02 0.424-0.61 0-1-0.434t-0.393-1.28v-7.85q0-1.9 1.37-1.9 0.703 0 1.01 0.444t0.341 1.31q0.506-0.868 1.03-1.31 0.537-0.444 1.43-0.444t1.73 0.444 0.837 1.18q0 0.517-0.362 0.858-0.351 0.331-0.765 0.331-0.155 0-0.754-0.186-0.589-0.196-1.04-0.196-0.62 0-1.01 0.331-0.393 0.32-0.61 0.961t-0.3 1.53q-0.0827 0.878-0.0827 2.15z"/>
  <path d="m177 83.3q-0.682 0-1.18-0.413-0.496-0.424-0.496-1.18 0-0.651 0.486-1.1 0.486-0.444 1.15-0.444 0.496 0 0.899 0.269t0.63 0.796q0.227 0.517 0.227 1.28 0 1.02-0.434 1.91-0.434 0.899-1.06 1.42-0.62 0.527-1.13 0.527-0.32 0-0.527-0.217-0.196-0.207-0.196-0.486 0-0.424 0.424-0.682 1.21-0.672 1.21-1.68z"/>
  <path d="m27.9 103-2.43-9.65v10.5q0 0.868-0.393 1.3-0.382 0.434-1.02 0.434-0.62 0-1.01-0.424-0.393-0.434-0.393-1.31v-12q0-0.992 0.517-1.33 0.517-0.351 1.4-0.351h0.951q0.858 0 1.24 0.155 0.393 0.155 0.579 0.558t0.424 1.31l2.2 8.3 2.2-8.3q0.238-0.91 0.424-1.31 0.186-0.403 0.568-0.558 0.393-0.155 1.25-0.155h0.951q0.879 0 1.4 0.351 0.517 0.341 0.517 1.33v12q0 0.868-0.393 1.3-0.382 0.434-1.03 0.434-0.61 0-1-0.434-0.393-0.434-0.393-1.3v-10.5l-2.43 9.65q-0.238 0.941-0.393 1.38-0.145 0.434-0.548 0.796t-1.12 0.362q-0.537 0-0.91-0.238-0.372-0.227-0.579-0.589t-0.331-0.796q-0.114-0.444-0.238-0.92z"/>
  <path d="m47.6 104v-0.362q-0.506 0.641-1.06 1.07-0.558 0.434-1.22 0.641-0.661 0.217-1.51 0.217-1.02 0-1.84-0.424-0.806-0.424-1.25-1.17-0.527-0.899-0.527-2.58v-5.59q0-0.847 0.382-1.26 0.382-0.424 1.01-0.424 0.641 0 1.03 0.424 0.393 0.424 0.393 1.26v4.52q0 0.982 0.165 1.65 0.165 0.661 0.589 1.04 0.434 0.372 1.17 0.372 0.713 0 1.34-0.424 0.63-0.424 0.92-1.11 0.238-0.599 0.238-2.63v-3.43q0-0.837 0.393-1.26 0.393-0.424 1.02-0.424 0.63 0 1.01 0.424 0.382 0.413 0.382 1.26v8.18q0 0.806-0.372 1.21-0.362 0.403-0.941 0.403t-0.961-0.413q-0.372-0.424-0.372-1.18z"/>
  <path d="m62.1 102q0 1.17-0.568 2.01-0.568 0.827-1.68 1.26-1.11 0.424-2.7 0.424-1.52 0-2.6-0.465t-1.6-1.16q-0.517-0.703-0.517-1.41 0-0.465 0.331-0.796t0.837-0.331q0.444 0 0.682 0.217t0.455 0.61q0.434 0.754 1.03 1.13 0.61 0.372 1.65 0.372 0.847 0 1.38-0.372 0.548-0.382 0.548-0.868 0-0.744-0.568-1.09-0.558-0.341-1.85-0.651-1.46-0.362-2.38-0.754-0.91-0.403-1.46-1.05-0.548-0.651-0.548-1.6 0-0.847 0.506-1.6 0.506-0.754 1.49-1.2 0.992-0.455 2.39-0.455 1.1 0 1.96 0.227 0.878 0.227 1.46 0.61 0.589 0.382 0.889 0.847 0.31 0.465 0.31 0.91 0 0.486-0.331 0.796-0.32 0.31-0.92 0.31-0.434 0-0.744-0.248-0.3-0.248-0.692-0.744-0.32-0.413-0.754-0.661t-1.18-0.248q-0.765 0-1.27 0.331-0.506 0.32-0.506 0.806 0 0.444 0.372 0.734 0.372 0.279 1 0.465 0.63 0.186 1.74 0.455 1.31 0.32 2.14 0.765 0.837 0.444 1.26 1.05 0.434 0.599 0.434 1.37z"/>
  <path d="m67.3 95.6v8.15q0 0.847-0.403 1.28-0.403 0.434-1.02 0.434t-1.01-0.444q-0.382-0.444-0.382-1.27v-8.07q0-0.837 0.382-1.26 0.393-0.424 1.01-0.424t1.02 0.424 0.403 1.18zm-1.4-2.91q-0.589 0-1.01-0.362-0.413-0.362-0.413-1.02 0-0.599 0.424-0.982 0.434-0.393 1-0.393 0.548 0 0.972 0.351t0.424 1.02q0 0.651-0.413 1.02-0.413 0.362-0.982 0.362z"/>
  <path d="m80.4 102q0 0.527-0.32 1.13-0.31 0.599-0.961 1.15-0.641 0.537-1.62 0.868-0.982 0.331-2.21 0.331-2.61 0-4.08-1.52-1.47-1.53-1.47-4.09 0-1.74 0.672-3.07t1.94-2.06q1.27-0.734 3.04-0.734 1.1 0 2.01 0.32 0.92 0.32 1.55 0.827 0.641 0.506 0.972 1.09 0.341 0.568 0.341 1.06 0 0.506-0.382 0.858-0.372 0.351-0.91 0.351-0.351 0-0.589-0.176-0.227-0.186-0.517-0.589-0.517-0.785-1.09-1.18-0.558-0.393-1.43-0.393-1.25 0-2.02 0.982-0.765 0.972-0.765 2.67 0 0.796 0.196 1.47 0.196 0.661 0.568 1.14 0.372 0.465 0.899 0.713 0.527 0.238 1.16 0.238 0.847 0 1.45-0.393 0.61-0.393 1.07-1.2 0.258-0.475 0.558-0.744t0.734-0.269q0.517 0 0.858 0.393t0.341 0.837z"/>
  <path d="m85.6 95.6v8.15q0 0.847-0.403 1.28-0.403 0.434-1.02 0.434t-1.01-0.444q-0.382-0.444-0.382-1.27v-8.07q0-0.837 0.382-1.26 0.393-0.424 1.01-0.424t1.02 0.424 0.403 1.18zm-1.4-2.91q-0.589 0-1.01-0.362-0.413-0.362-0.413-1.02 0-0.599 0.424-0.982 0.434-0.393 1-0.393 0.548 0 0.972 0.351t0.424 1.02q0 0.651-0.413 1.02-0.413 0.362-0.982 0.362z"/>
  <path d="m95.7 104q-1.02 0.796-1.98 1.2-0.951 0.393-2.14 0.393-1.09 0-1.91-0.424-0.816-0.434-1.26-1.17t-0.444-1.59q0-1.16 0.734-1.97 0.734-0.816 2.02-1.1 0.269-0.062 1.33-0.279 1.06-0.217 1.82-0.393 0.765-0.186 1.65-0.444-0.0517-1.12-0.455-1.63-0.393-0.527-1.64-0.527-1.07 0-1.62 0.3-0.537 0.3-0.93 0.899-0.382 0.599-0.548 0.796-0.155 0.186-0.682 0.186-0.475 0-0.827-0.3-0.341-0.31-0.341-0.785 0-0.744 0.527-1.45 0.527-0.703 1.64-1.16 1.12-0.455 2.78-0.455 1.86 0 2.92 0.444 1.06 0.434 1.5 1.38 0.444 0.951 0.444 2.52 0 0.992-0.0103 1.68 0 0.692-0.0103 1.54 0 0.796 0.258 1.66 0.269 0.858 0.269 1.11 0 0.434-0.413 0.796-0.403 0.351-0.92 0.351-0.434 0-0.858-0.403-0.424-0.413-0.899-1.19zm-0.186-4.08q-0.62 0.227-1.81 0.486-1.18 0.248-1.63 0.372-0.455 0.114-0.868 0.465-0.413 0.341-0.413 0.961 0 0.641 0.486 1.1 0.486 0.444 1.27 0.444 0.837 0 1.54-0.362 0.713-0.372 1.04-0.951 0.382-0.641 0.382-2.11z"/>
  <path d="m104 95.6v0.341q0.744-0.982 1.62-1.44 0.889-0.465 2.04-0.465 1.12 0 1.99 0.486 0.878 0.486 1.31 1.37 0.279 0.517 0.362 1.12 0.0827 0.599 0.0827 1.53v5.25q0 0.847-0.393 1.28-0.382 0.434-1 0.434-0.63 0-1.02-0.444-0.393-0.444-0.393-1.27v-4.7q0-1.4-0.393-2.13-0.382-0.744-1.54-0.744-0.754 0-1.37 0.455-0.62 0.444-0.91 1.23-0.207 0.63-0.207 2.36v3.53q0 0.858-0.403 1.29-0.393 0.424-1.02 0.424-0.61 0-1-0.444t-0.393-1.27v-8.15q0-0.806 0.351-1.2 0.351-0.403 0.961-0.403 0.372 0 0.672 0.176t0.475 0.527q0.186 0.351 0.186 0.858z"/>
  <path d="m116 106q-0.682 0-1.18-0.413-0.496-0.424-0.496-1.18 0-0.651 0.486-1.1t1.15-0.444q0.496 0 0.899 0.269t0.63 0.796q0.227 0.517 0.227 1.28 0 1.02-0.434 1.91-0.434 0.899-1.06 1.42-0.62 0.527-1.13 0.527-0.32 0-0.527-0.217-0.196-0.207-0.196-0.486 0-0.424 0.424-0.682 1.21-0.672 1.21-1.68z"/>
  <path d="m32.5 126-0.723-1.9h-6.16l-0.723 1.94q-0.424 1.14-0.723 1.54-0.3 0.393-0.982 0.393-0.579 0-1.02-0.424t-0.444-0.961q0-0.31 0.103-0.641t0.341-0.92l3.88-9.84q0.165-0.424 0.393-1.01 0.238-0.599 0.496-0.992 0.269-0.393 0.692-0.63 0.434-0.248 1.06-0.248 0.641 0 1.06 0.248 0.434 0.238 0.692 0.62 0.269 0.382 0.444 0.827 0.186 0.434 0.465 1.17l3.96 9.78q0.465 1.12 0.465 1.62 0 0.527-0.444 0.972-0.434 0.434-1.05 0.434-0.362 0-0.62-0.134-0.258-0.124-0.434-0.341-0.176-0.227-0.382-0.682-0.196-0.465-0.341-0.816zm-6.08-4.21h4.53l-2.28-6.25z"/>
  <path d="m40.4 118v0.341q0.744-0.982 1.62-1.44 0.889-0.465 2.04-0.465 1.12 0 1.99 0.486 0.879 0.486 1.31 1.37 0.279 0.517 0.362 1.12 0.0827 0.599 0.0827 1.53v5.25q0 0.847-0.393 1.28-0.382 0.434-1 0.434-0.63 0-1.02-0.444-0.393-0.444-0.393-1.27v-4.7q0-1.4-0.393-2.13-0.382-0.744-1.54-0.744-0.754 0-1.37 0.455-0.62 0.444-0.91 1.23-0.207 0.63-0.207 2.36v3.53q0 0.858-0.403 1.29-0.393 0.424-1.02 0.424-0.61 0-1-0.444-0.393-0.444-0.393-1.27v-8.15q0-0.806 0.351-1.2 0.351-0.403 0.961-0.403 0.372 0 0.672 0.176t0.475 0.527q0.186 0.351 0.186 0.858z"/>
  <path d="m58.4 126v-0.279q-0.568 0.651-1.13 1.06-0.548 0.403-1.2 0.61-0.641 0.217-1.41 0.217-1.01 0-1.88-0.424-0.858-0.434-1.49-1.23-0.63-0.796-0.961-1.87-0.32-1.07-0.32-2.33 0-2.65 1.29-4.12t3.4-1.48q1.22 0 2.06 0.424 0.837 0.413 1.63 1.28v-4.17q0-0.868 0.341-1.31 0.351-0.444 0.992-0.444t0.982 0.413q0.351 0.403 0.351 1.2v12.4q0 0.806-0.372 1.21t-0.961 0.403q-0.579 0-0.961-0.413-0.372-0.424-0.372-1.2zm-5.55-4.14q0 1.15 0.351 1.95 0.362 0.806 0.982 1.22 0.62 0.403 1.35 0.403 0.744 0 1.35-0.382 0.62-0.393 0.982-1.19 0.372-0.806 0.372-2.01 0-1.13-0.372-1.93-0.362-0.816-0.992-1.24-0.62-0.434-1.36-0.434-0.775 0-1.38 0.444-0.61 0.434-0.951 1.26-0.331 0.816-0.331 1.9z"/>
  <path d="m71.3 112h4q1.56 0 2.68 0.289t2.03 1.09q2.37 2.03 2.37 6.16 0 1.36-0.238 2.49t-0.734 2.04q-0.496 0.899-1.27 1.61-0.61 0.548-1.33 0.878t-1.56 0.465q-0.827 0.134-1.87 0.134h-4q-0.837 0-1.26-0.248-0.424-0.258-0.558-0.713-0.124-0.465-0.124-1.2v-11.1q0-0.992 0.444-1.44 0.444-0.444 1.44-0.444zm1.19 2.43v10.3h2.33q0.765 0 1.2-0.0413 0.434-0.0413 0.899-0.207 0.465-0.165 0.806-0.465 1.54-1.3 1.54-4.49 0-2.24-0.682-3.36-0.672-1.12-1.66-1.42-0.992-0.31-2.4-0.31z"/>
  <path d="m87.6 118v8.15q0 0.847-0.403 1.28-0.403 0.434-1.02 0.434t-1.01-0.444q-0.382-0.444-0.382-1.27v-8.07q0-0.837 0.382-1.26 0.393-0.424 1.01-0.424t1.02 0.424 0.403 1.18zm-1.4-2.91q-0.589 0-1.01-0.362-0.413-0.362-0.413-1.02 0-0.599 0.424-0.982 0.434-0.393 1-0.393 0.548 0 0.972 0.351t0.424 1.02q0 0.651-0.413 1.02-0.413 0.362-0.982 0.362z"/>
  <path d="m101 118v8.2q0 1.41-0.3 2.42t-0.961 1.67q-0.661 0.661-1.74 0.982-1.06 0.32-2.66 0.32-1.46 0-2.6-0.413-1.15-0.403-1.77-1.05-0.62-0.641-0.62-1.32 0-0.517 0.351-0.847 0.351-0.32 0.847-0.32 0.62 0 1.09 0.548 0.227 0.279 0.465 0.558 0.248 0.289 0.537 0.486 0.3 0.207 0.713 0.3 0.413 0.103 0.951 0.103 1.1 0 1.69-0.31 0.61-0.3 0.847-0.848 0.248-0.548 0.289-1.18 0.0413-0.62 0.062-2.01-0.651 0.91-1.51 1.38-0.847 0.475-2.03 0.475-1.42 0-2.48-0.723-1.05-0.723-1.62-2.03-0.568-1.3-0.568-3.01 0-1.27 0.341-2.29 0.351-1.02 0.992-1.73t1.48-1.05q0.837-0.362 1.84-0.362 1.2 0 2.08 0.465 0.879 0.455 1.63 1.44v-0.382q0-0.734 0.362-1.14 0.362-0.403 0.93-0.403 0.816 0 1.09 0.537 0.269 0.527 0.269 1.53zm-8.18 3.58q0 1.72 0.744 2.59 0.754 0.878 1.94 0.878 0.703 0 1.32-0.372 0.63-0.382 1.02-1.14 0.393-0.765 0.393-1.85 0-1.73-0.765-2.69-0.754-0.961-1.99-0.961-1.21 0-1.94 0.92-0.723 0.92-0.723 2.61z"/>
  <path d="m107 118v8.15q0 0.847-0.403 1.28-0.403 0.434-1.02 0.434t-1.01-0.444q-0.382-0.444-0.382-1.27v-8.07q0-0.837 0.382-1.26 0.393-0.424 1.01-0.424t1.02 0.424 0.403 1.18zm-1.4-2.91q-0.589 0-1.01-0.362-0.413-0.362-0.413-1.02 0-0.599 0.424-0.982 0.434-0.393 1-0.393 0.548 0 0.972 0.351t0.424 1.02q0 0.651-0.413 1.02-0.413 0.362-0.982 0.362z"/>
  <path d="m110 116h0.31v-1.69q0-0.682 0.031-1.06 0.0413-0.393 0.207-0.672 0.165-0.289 0.475-0.465 0.31-0.186 0.692-0.186 0.537 0 0.972 0.403 0.289 0.269 0.362 0.661 0.0827 0.382 0.0827 1.1v1.92h1.03q0.599 0 0.91 0.289 0.32 0.279 0.32 0.723 0 0.568-0.455 0.796-0.444 0.227-1.28 0.227h-0.527v5.19q0 0.661 0.0413 1.02 0.0517 0.351 0.248 0.579 0.207 0.217 0.661 0.217 0.248 0 0.672-0.0827 0.424-0.093 0.661-0.093 0.341 0 0.61 0.279 0.279 0.269 0.279 0.672 0 0.682-0.744 1.04-0.744 0.362-2.14 0.362-1.32 0-2.01-0.444t-0.899-1.23q-0.207-0.785-0.207-2.1v-5.42h-0.372q-0.61 0-0.93-0.289t-0.32-0.734 0.331-0.723q0.341-0.289 0.982-0.289z"/>
  <path d="m124 126q-1.02 0.796-1.98 1.2-0.951 0.393-2.14 0.393-1.09 0-1.91-0.424-0.816-0.434-1.26-1.17t-0.444-1.59q0-1.16 0.734-1.97 0.734-0.816 2.02-1.1 0.269-0.062 1.33-0.279 1.06-0.217 1.82-0.393 0.765-0.186 1.65-0.444-0.0517-1.12-0.455-1.63-0.393-0.527-1.64-0.527-1.07 0-1.62 0.3-0.537 0.3-0.93 0.899-0.382 0.599-0.548 0.796-0.155 0.186-0.682 0.186-0.475 0-0.827-0.3-0.341-0.31-0.341-0.785 0-0.744 0.527-1.45t1.64-1.16q1.12-0.455 2.78-0.455 1.86 0 2.92 0.444 1.06 0.434 1.5 1.38 0.444 0.951 0.444 2.52 0 0.992-0.0103 1.68 0 0.692-0.0103 1.54 0 0.796 0.258 1.66 0.269 0.858 0.269 1.11 0 0.434-0.413 0.796-0.403 0.351-0.92 0.351-0.434 0-0.858-0.403-0.424-0.413-0.899-1.19zm-0.186-4.08q-0.62 0.227-1.81 0.486-1.18 0.248-1.63 0.372-0.455 0.114-0.868 0.465-0.413 0.341-0.413 0.961 0 0.641 0.486 1.1 0.486 0.444 1.27 0.444 0.837 0 1.54-0.362 0.713-0.372 1.04-0.951 0.382-0.641 0.382-2.11z"/>
  <path d="m130 126v-12.2q0-0.848 0.372-1.28 0.382-0.434 1.02-0.434t1.03 0.434q0.393 0.424 0.393 1.28v12.2q0 0.858-0.403 1.29-0.393 0.424-1.02 0.424-0.62 0-1.01-0.444-0.382-0.444-0.382-1.27z"/>
  <path d="m151 126-0.723-1.9h-6.16l-0.723 1.94q-0.424 1.14-0.723 1.54-0.3 0.393-0.982 0.393-0.579 0-1.02-0.424t-0.444-0.961q0-0.31 0.103-0.641t0.341-0.92l3.88-9.84q0.165-0.424 0.393-1.01 0.238-0.599 0.496-0.992 0.269-0.393 0.692-0.63 0.434-0.248 1.06-0.248 0.641 0 1.06 0.248 0.434 0.238 0.692 0.62 0.269 0.382 0.444 0.827 0.186 0.434 0.465 1.17l3.96 9.78q0.465 1.12 0.465 1.62 0 0.527-0.444 0.972-0.434 0.434-1.05 0.434-0.362 0-0.62-0.134-0.258-0.124-0.434-0.341-0.176-0.227-0.382-0.682-0.196-0.465-0.341-0.816zm-6.08-4.21h4.53l-2.28-6.25z"/>
  <path d="m159 124v2.36q0 0.858-0.403 1.29-0.403 0.424-1.02 0.424-0.61 0-1-0.434-0.393-0.434-0.393-1.28v-7.85q0-1.9 1.37-1.9 0.703 0 1.01 0.444t0.341 1.31q0.506-0.868 1.03-1.31 0.537-0.444 1.43-0.444 0.889 0 1.73 0.444t0.837 1.18q0 0.517-0.362 0.858-0.351 0.331-0.765 0.331-0.155 0-0.754-0.186-0.589-0.196-1.04-0.196-0.62 0-1.01 0.331-0.393 0.32-0.61 0.961t-0.3 1.53q-0.0827 0.878-0.0827 2.15z"/>
  <path d="m166 116h0.31v-1.69q0-0.682 0.031-1.06 0.0413-0.393 0.207-0.672 0.165-0.289 0.475-0.465 0.31-0.186 0.692-0.186 0.537 0 0.972 0.403 0.289 0.269 0.362 0.661 0.0827 0.382 0.0827 1.1v1.92h1.03q0.599 0 0.91 0.289 0.32 0.279 0.32 0.723 0 0.568-0.455 0.796-0.444 0.227-1.28 0.227h-0.527v5.19q0 0.661 0.0413 1.02 0.0517 0.351 0.248 0.579 0.207 0.217 0.661 0.217 0.248 0 0.672-0.0827 0.424-0.093 0.661-0.093 0.341 0 0.61 0.279 0.279 0.269 0.279 0.672 0 0.682-0.744 1.04-0.744 0.362-2.14 0.362-1.32 0-2.01-0.444t-0.899-1.23q-0.207-0.785-0.207-2.1v-5.42h-0.372q-0.61 0-0.93-0.289t-0.32-0.734 0.331-0.723q0.341-0.289 0.982-0.289z"/>
  <path d="m176 118v8.15q0 0.847-0.403 1.28-0.403 0.434-1.02 0.434t-1.01-0.444q-0.382-0.444-0.382-1.27v-8.07q0-0.837 0.382-1.26 0.393-0.424 1.01-0.424t1.02 0.424 0.403 1.18zm-1.4-2.91q-0.589 0-1.01-0.362-0.413-0.362-0.413-1.02 0-0.599 0.424-0.982 0.434-0.393 1-0.393 0.548 0 0.972 0.351t0.424 1.02q0 0.651-0.413 1.02-0.413 0.362-0.982 0.362z"/>
  <path d="m188 124q0 1.17-0.568 2.01-0.568 0.827-1.68 1.26-1.11 0.424-2.7 0.424-1.52 0-2.6-0.465t-1.6-1.16q-0.517-0.703-0.517-1.41 0-0.465 0.331-0.796t0.837-0.331q0.444 0 0.682 0.217t0.455 0.61q0.434 0.754 1.03 1.13 0.61 0.372 1.65 0.372 0.847 0 1.38-0.372 0.548-0.382 0.548-0.868 0-0.744-0.568-1.09-0.558-0.341-1.85-0.651-1.46-0.362-2.38-0.754-0.91-0.403-1.46-1.05-0.548-0.651-0.548-1.6 0-0.847 0.506-1.6t1.49-1.2q0.992-0.455 2.39-0.455 1.1 0 1.96 0.227 0.878 0.227 1.46 0.61 0.589 0.382 0.889 0.848 0.31 0.465 0.31 0.91 0 0.486-0.331 0.796-0.32 0.31-0.92 0.31-0.434 0-0.744-0.248-0.3-0.248-0.692-0.744-0.32-0.413-0.754-0.661t-1.18-0.248q-0.765 0-1.27 0.331-0.506 0.32-0.506 0.806 0 0.444 0.372 0.734 0.372 0.279 1 0.465 0.63 0.186 1.74 0.455 1.31 0.32 2.14 0.765 0.837 0.444 1.26 1.05 0.434 0.599 0.434 1.37z"/>
  <path d="m190 116h0.31v-1.69q0-0.682 0.031-1.06 0.0413-0.393 0.207-0.672 0.165-0.289 0.475-0.465 0.31-0.186 0.692-0.186 0.537 0 0.972 0.403 0.289 0.269 0.362 0.661 0.0827 0.382 0.0827 1.1v1.92h1.03q0.599 0 0.91 0.289 0.32 0.279 0.32 0.723 0 0.568-0.455 0.796-0.444 0.227-1.28 0.227h-0.527v5.19q0 0.661 0.0413 1.02 0.0517 0.351 0.248 0.579 0.207 0.217 0.661 0.217 0.248 0 0.672-0.0827 0.424-0.093 0.661-0.093 0.341 0 0.61 0.279 0.279 0.269 0.279 0.672 0 0.682-0.744 1.04-0.744 0.362-2.14 0.362-1.32 0-2.01-0.444t-0.899-1.23q-0.207-0.785-0.207-2.1v-5.42h-0.372q-0.61 0-0.93-0.289t-0.32-0.734 0.331-0.723q0.341-0.289 0.982-0.289z"/>
  <path d="m199 128q-0.641 0-1.11-0.413-0.465-0.413-0.465-1.16 0-0.63 0.444-1.09 0.444-0.455 1.1-0.455 0.651 0 1.11 0.455 0.465 0.444 0.465 1.09 0 0.734-0.465 1.16-0.455 0.413-1.07 0.413z"/>
 </g>
</svg>
