<?xml version="1.0" encoding="UTF-8" standalone="no"?>
<svg
   xmlns:dc="http://purl.org/dc/elements/1.1/"
   xmlns:cc="http://creativecommons.org/ns#"
   xmlns:rdf="http://www.w3.org/1999/02/22-rdf-syntax-ns#"
   xmlns:svg="http://www.w3.org/2000/svg"
   xmlns="http://www.w3.org/2000/svg"
   xmlns:sodipodi="http://sodipodi.sourceforge.net/DTD/sodipodi-0.dtd"
   xmlns:inkscape="http://www.inkscape.org/namespaces/inkscape"
   width="600"
   height="636.74976"
   version="1.1"
   viewBox="0 0 158.75 168.47338"
   id="svg1007"
   sodipodi:docname="logo.svg"
   inkscape:version="1.0.2 (e86c870, 2021-01-15)">
  <defs
     id="defs1011" />
  <sodipodi:namedview
     pagecolor="#000000"
     bordercolor="#666666"
     borderopacity="1"
     objecttolerance="10"
     gridtolerance="10"
     guidetolerance="10"
     inkscape:pageopacity="0"
     inkscape:pageshadow="2"
     inkscape:window-width="1920"
     inkscape:window-height="1046"
     id="namedview1009"
     showgrid="false"
     inkscape:zoom="1.0834765"
     inkscape:cx="494.57461"
     inkscape:cy="583.36886"
     inkscape:window-x="-11"
     inkscape:window-y="-11"
     inkscape:window-maximized="1"
     inkscape:current-layer="g1005"
     fit-margin-top="0"
     fit-margin-left="0"
     fit-margin-right="0"
     fit-margin-bottom="0"
     units="px" />
  <metadata
     id="metadata987">
    <rdf:RDF>
      <cc:Work
         rdf:about="">
        <dc:format>image/svg+xml</dc:format>
        <dc:type
           rdf:resource="http://purl.org/dc/dcmitype/StillImage" />
        <dc:title></dc:title>
      </cc:Work>
    </rdf:RDF>
  </metadata>
  <g
     transform="matrix(0.3706,0,0,0.3706,-22.114454,-22.335083)"
     fill="none"
     stroke="#ffffdd"
     stroke-dasharray="none"
     stroke-linecap="round"
     stroke-miterlimit="10"
     stroke-width="2"
     id="g1005"
     style="fill:#000000;fill-opacity:1">
    <path
       id="path989"
       style="fill:none;fill-opacity:1;stroke:#ffffff;stroke-width:0.71393238;stroke-miterlimit:10;stroke-dasharray:none;stroke-opacity:1"
       d="m 234.74453,373.46987 -39.07088,99.54872 a 213.89212,213.89212 0 0 0 62.16173,14.18929 l -1.99704,26.66489 a 240.62864,240.62864 0 0 0 35.96036,0 l -1.99827,-26.66489 a 213.89212,213.89212 0 0 0 62.16172,-14.18929 l -39.07089,-99.54872 h -0.005 a 106.94606,106.94606 0 0 1 -78.14176,0 z m 9.37751,30.74719 a 133.68258,133.68258 0 0 0 59.49735,0 h 0.004 l 11.89773,52.13676 a 187.1556,187.1556 0 0 1 -27.66278,4.16806 L 285.85987,433.857 a 160.41909,160.41909 0 0 1 -23.97441,0 l -1.99828,26.66488 a 187.1556,187.1556 0 0 1 -27.66277,-4.16806 z" />
    <path
       d="m 207.01516,389.69031 -40.10478,69.46147 a 213.89212,213.89212 0 0 1 -26.41567,-18.0115 l 33.34043,-41.807 a 160.41909,160.41909 0 0 1 -17.5748,-16.30927 l -39.19573,36.37057 A 213.89212,213.89212 0 0 1 97.136991,394.40485 L 141.31463,364.28171 A 160.41909,160.41909 0 0 1 129.32775,343.51635 L 81.148555,366.71474 A 213.89212,213.89212 0 0 1 69.47361,336.95699 L 146.11829,313.313 a 133.68258,133.68258 0 0 0 60.90578,76.3684"
       paint-order="fill stroke markers"
       id="path993"
       style="fill:none;fill-opacity:1;stroke:#ffffff;stroke-width:0.71393238;stroke-miterlimit:10;stroke-dasharray:none;stroke-opacity:1" />
    <path
       d="M 141.68894,293.88447 62.379521,305.83569 A 213.89212,213.89212 0 0 1 59.990168,273.95685 H 113.4632 a 160.41909,160.41909 0 0 1 1.79134,-23.91135 l -52.87591,-7.97016 a 213.89212,213.89212 0 0 1 7.113695,-31.16586 l 51.093485,15.76563 a 160.41909,160.41909 0 0 1 8.75977,-22.31608 L 81.166379,181.16065 h 10e-7 a 213.89212,213.89212 0 0 1 15.988435,-27.68121 l 66.270905,45.18471 a 133.68258,133.68258 0 0 0 -21.73678,95.27112"
       paint-order="fill stroke markers"
       id="path995"
       style="fill:none;fill-opacity:1;stroke:#ffffff;stroke-width:0.71393238;stroke-miterlimit:10;stroke-dasharray:none;stroke-opacity:1" />
    <path
       d="m 175.82255,183.01705 -58.79359,-54.56031 a 213.89212,213.89212 0 0 1 23.4301,-21.7457 l 33.34043,41.807 A 160.41909,160.41909 0 0 1 193.61125,135.0161 L 166.87473,88.708452 v 0 a 213.89212,213.89212 0 0 1 28.80414,-13.86734 l 19.53548,49.774478 h 1e-5 a 160.41909,160.41909 0 0 1 22.9132,-7.06735 L 226.22981,65.412035 h 1e-5 a 213.89212,213.89212 0 0 1 31.61147,-4.764447 l 5.99432,79.986742 a 133.68258,133.68258 0 0 0 -88.00769,42.37738"
       paint-order="fill stroke markers"
       id="path997"
       style="fill:none;fill-opacity:1;stroke:#ffffff;stroke-width:0.71393238;stroke-miterlimit:10;stroke-dasharray:none;stroke-opacity:1" />
    <path
       d="m 283.83808,140.59512 5.99432,-79.986745 a 213.89212,213.89212 0 0 1 31.61147,4.764447 l -11.89774,52.136208 a 160.41909,160.41909 0 0 1 22.91319,7.06735 L 351.9948,74.8019 h 10e-6 a 213.89212,213.89212 0 0 1 28.80414,13.867339 l -26.73652,46.307641 a 160.41909,160.41909 0 0 1 19.81176,13.50194 l 33.34043,-41.80699 a 213.89212,213.89212 0 0 1 23.4301,21.74569 l -58.79359,54.56032 a 133.68258,133.68258 0 0 0 -88.0077,-42.37738"
       paint-order="fill stroke markers"
       id="path999"
       style="fill:none;fill-opacity:1;stroke:#ffffff;stroke-width:0.71393238;stroke-miterlimit:10;stroke-dasharray:none;stroke-opacity:1" />
    <path
       d="m 384.27825,198.61335 66.27091,-45.18471 1e-5,1e-5 a 213.89212,213.89212 0 0 1 15.98843,27.68121 l -48.1792,23.19838 a 160.41909,160.41909 0 0 1 8.75978,22.31608 l 51.09348,-15.76563 a 213.89212,213.89212 0 0 1 7.11369,94.91462 l -79.30941,-11.95122 a 133.68258,133.68258 0 0 0 1.49279,-19.92761 h 53.47303 a 187.15561,187.15561 0 0 0 -2.0908,-27.8951 l -52.87591,7.97015 A 133.68258,133.68258 0 0 0 384.27826,198.5893"
       paint-order="fill stroke markers"
       id="path1001"
       style="fill:none;fill-opacity:1;stroke:#ffffff;stroke-width:0.71393238;stroke-miterlimit:10;stroke-dasharray:none;stroke-opacity:1" />
    <path
       d="m 401.56786,313.313 25.5512,7.88104 a 160.41909,160.41909 0 0 1 -20.74754,43.08143 l 44.17764,30.12314 a 213.89212,213.89212 0 0 1 -19.92762,24.98973 l -39.19573,-36.37057 a 160.41909,160.41909 0 0 1 -17.5748,16.30928 l 16.66576,20.89904 a 187.15561,187.15561 0 0 1 -23.10926,15.75672 l -26.73652,-46.30765 a 133.68258,133.68258 0 0 0 60.90579,-76.3684"
       paint-order="fill stroke markers"
       id="path1003"
       style="fill:none;fill-opacity:1;stroke:#ffffff;stroke-width:0.71393238;stroke-miterlimit:10;stroke-dasharray:none;stroke-opacity:1" />
  </g>
</svg>
