<?xml version="1.0" encoding="UTF-8"?>
<svg width="210mm" height="210mm" version="1.1" viewBox="0 0 210 210" xmlns="http://www.w3.org/2000/svg" >
 <path d="m103 31.7c-46.1 0.701-86.9 44.7-82.8 90.9 3.17 42.9 44.7 78.4 87.6 75.3 35.1-1.64 66.9-28.2 75.6-62.1 6.06-21.8 1.81-45.9-11.2-64.4-15.3-22.9-41.4-38.9-69.2-39.6zm49.3 132c-7.15 5.15-13.1 14.7-22.9 13.9-9.02-2.08-5.48-13.9-7.68-20.6 0.496-6.12 12.3-4.83 17.2-8.69 7.25-3.94 11.1-12 13.9-19.5 3.14-9.77 1.21-20.3-2.74-29.4-2.82-8.2-1.19-23.3-9.52-26.4-11.2 2.23-22.4 10.2-34.1 5.59-13.3 1.09-27-0.268-39.6-4.8-9.24 1.5-7.75 12.5-8.04 19.4-1.44 10.6-9.68 20.6-5.9 31.9 3.18 13.5 13.9 26.9 28.6 27.3 8.93 4.65 1.89 15.2-0.0509 22.1-4.54 10.1-17.9-2.17-23.6-6.85-23.6-19.7-31.9-55.9-17.8-83.5 13.1-27.4 45.3-44.7 75.3-38.3 27.4 4.89 51.1 27.2 55.9 54.8 4.47 22.4-2.24 47.3-19.1 63.1z" fill="#000" stroke-width=".169"/>
 
 <path d="m79.1 180c-36.3-12.4-55.6-57.8-39.7-92.6 14.8-36.2 62.6-53.4 96.8-33.8 33.4 17.4 47.4 63.9 27.2 96.1-8.64 14.7-22.7 26.3-39.1 31.4 4.76-11-12.6-29.7 5.24-28.3 18.8-4.86 29.8-26.8 24.3-44.8-12.2-10 3.62-36.3-16.5-35.4-10.9 11.7-25.6 4.29-39 5.66-13.5 10.7-31.7-16.7-38.7 0.371 2.88 13.9-6.25 25-7.35 38.5-0.919 19.7 15.4 36.9 35.1 37.3-5.37 5.65-1.01 25.2-8.2 25.5z" fill="#fff" stop-color="#000000" stroke-width=".54" style="font-variation-settings:normal"/>
  <path d="m107 133c-6.82 3.36-15.8-1.94-3.68-0.849 0.939 0.606 2.83-0.252 3.68 0.849z" stroke="#fff" stroke-width="2.69"/>
 <g>
  <circle class="eyeball" cx="85" cy="113" r="15" fill="#fff"/>
  <circle class="pupil" cx="85" cy="113" r="5" fill="#000"/>
  <circle class="eyeball" cx="120" cy="113" r="15" fill="#fff"/>
  <circle class="pupil" cx="120" cy="113" r="5" fill="#000"/>
 </g>
 
</svg>
