<!--?xml version="1.0" encoding="UTF-8"?-->
<svg width="196mm" height="196mm" version="1.1" viewBox="0 0 196 196" xmlns="http://www.w3.org/2000/svg" xmlns:cc="http://creativecommons.org/ns#" xmlns:dc="http://purl.org/dc/elements/1.1/" xmlns:rdf="http://www.w3.org/1999/02/22-rdf-syntax-ns#" class="svgshadow" style="">
 <metadata>
  <rdf:rdf>
   <cc:work rdf:about="">
    <dc:format>image/svg+xml</dc:format>
    <dc:type rdf:resource="http://purl.org/dc/dcmitype/StillImage"></dc:type>
    <dc:title></dc:title>
   </cc:work>
  </rdf:rdf>
 </metadata>
 <g transform="matrix(.3706 0 0 .3706 -18.35 -20.2)" fill="none" stroke="#fff" stroke-dasharray="" stroke-linecap="round" stroke-miterlimit="10" stroke-width="8">
  <path d="m343.8 411.7 43.84 111.7a240 240 0 0 1-69.75 15.92l2.242 29.92a270 270 0 0 1-40.35 0l2.242-29.92a240 240 0 0 1-69.75-15.92l43.84-111.7a120 120 0 0 0 87.68 0" paint-order="fill stroke markers" class="eLrJHqqy_0"></path>
  <path d="m333.4 446.2 13.35 58.5a210 210 0 0 1-31.04 4.678l-2.242-29.92a180 180 0 0 1-26.9 0l-2.242 29.92a210 210 0 0 1-31.04-4.678l13.35-58.5a150 150 0 0 0 66.76 0" paint-order="fill stroke markers" class="eLrJHqqy_1"></path>
  <path d="m225 429.9-45 77.94a240 240 0 0 1-29.64-20.21l37.41-46.91a180 180 0 0 1-19.72-18.3l-43.98 40.81a240 240 0 0 1-22.36-28.04l49.57-33.8a180 180 0 0 1-13.45-23.3l-54.06 26.03a240 240 0 0 1-13.1-33.39l86-26.53a150 150 0 0 0 68.34 85.69" paint-order="fill stroke markers" class="eLrJHqqy_2"></path>
  <path d="m151.7 322.4-88.99 13.41a240 240 0 0 1-2.681-35.77h60a180 180 0 0 1 2.01-26.83l-59.33-8.943a240 240 0 0 1 7.982-34.97l57.33 17.69a180 180 0 0 1 9.829-25.04l-54.06-26.03h1e-6a240 240 0 0 1 17.94-31.06l74.36 50.7a150 150 0 0 0-24.39 106.9" paint-order="fill stroke markers" class="eLrJHqqy_3"></path>
  <path d="m190 198-65.97-61.22a240 240 0 0 1 26.29-24.4l37.41 46.91a180 180 0 0 1 22.23-15.15l-30-51.96v-1e-6a240 240 0 0 1 32.32-15.56l21.92 55.85h1e-5a180 180 0 0 1 25.71-7.93l-13.35-58.5h1e-5a240 240 0 0 1 35.47-5.346l6.726 89.75a150 150 0 0 0-98.75 47.55" paint-order="fill stroke markers" class="eLrJHqqy_4"></path>
  <path d="m311.2 150.4 6.726-89.75a240 240 0 0 1 35.47 5.346l-13.35 58.5a180 180 0 0 1 25.71 7.93l21.92-55.85h1e-5a240 240 0 0 1 32.32 15.56l-30 51.96a180 180 0 0 1 22.23 15.15l37.41-46.91a240 240 0 0 1 26.29 24.4l-65.97 61.22a150 150 0 0 0-98.75-47.55" paint-order="fill stroke markers" class="eLrJHqqy_5"></path>
  <path d="m423.9 215.5 74.36-50.7 1e-5 1e-5a240 240 0 0 1 17.94 31.06l-54.06 26.03a180 180 0 0 1 9.829 25.04l57.33-17.69a240 240 0 0 1 7.982 106.5l-88.99-13.41a150 150 0 0 0 1.675-22.36h60a210 210 0 0 0-2.346-31.3l-59.33 8.943a150 150 0 0 0-24.39-62.14" paint-order="fill stroke markers" class="eLrJHqqy_6"></path>
  <path d="m443.3 344.2 28.67 8.843a180 180 0 0 1-23.28 48.34l49.57 33.8a240 240 0 0 1-22.36 28.04l-43.98-40.81a180 180 0 0 1-19.72 18.3l18.7 23.45a210 210 0 0 1-25.93 17.68l-30-51.96a150 150 0 0 0 68.34-85.69" paint-order="fill stroke markers" class="eLrJHqqy_7"></path>
 </g>
 <style data-made-with="vivus-instant">.eLrJHqqy_0{stroke-dasharray:574 576;stroke-dashoffset:575;animation:eLrJHqqy_draw 2000ms ease-in-out 0ms forwards;}.eLrJHqqy_1{stroke-dasharray:338 340;stroke-dashoffset:339;animation:eLrJHqqy_draw 2000ms ease-in-out 571ms forwards;}.eLrJHqqy_2{stroke-dasharray:694 696;stroke-dashoffset:695;animation:eLrJHqqy_draw 2000ms ease-in-out 1142ms forwards;}.eLrJHqqy_3{stroke-dasharray:694 696;stroke-dashoffset:695;animation:eLrJHqqy_draw 2000ms ease-in-out 1714ms forwards;}.eLrJHqqy_4{stroke-dasharray:694 696;stroke-dashoffset:695;animation:eLrJHqqy_draw 2000ms ease-in-out 2285ms forwards;}.eLrJHqqy_5{stroke-dasharray:694 696;stroke-dashoffset:695;animation:eLrJHqqy_draw 2000ms ease-in-out 2857ms forwards;}.eLrJHqqy_6{stroke-dasharray:712 714;stroke-dashoffset:713;animation:eLrJHqqy_draw 2000ms ease-in-out 3428ms forwards;}.eLrJHqqy_7{stroke-dasharray:501 503;stroke-dashoffset:502;animation:eLrJHqqy_draw 2000ms ease-in-out 4000ms forwards;}@keyframes eLrJHqqy_draw{100%{stroke-dashoffset:0;}}@keyframes eLrJHqqy_fade{0%{stroke-opacity:1;}96.07843137254902%{stroke-opacity:1;}100%{stroke-opacity:0;}}</style></svg>
