<?xml version="1.0" encoding="utf-8"?>
<svg viewBox="0 500 600 600" width="2000px" height="2000px" xmlns="http://www.w3.org/2000/svg">
  <g style="" transform="matrix(1.1552619934082031, 0, 0, 1.1552619934082031, -44.872591117289176, -91.17181041114657)">
    <path d="M 250.647 869.039 L 206.807 980.423 C 229.133 989.188 252.647 994.555 276.565 996.346 L 274.323 1026.262 C 287.751 1027.269 301.236 1027.269 314.664 1026.262 L 312.422 996.346 C 336.34 994.555 359.854 989.188 382.18 980.423 L 338.34 869.039 L 338.334 869.039 C 310.113 880.141 278.734 880.141 250.512 869.039 L 250.647 869.039 Z M 261.142 903.526 C 283.113 908.542 305.931 908.542 327.901 903.526 L 327.906 903.526 L 341.257 962.002 C 331.036 964.334 320.654 965.898 310.198 966.679 L 307.956 936.762 C 298.996 937.434 289.999 937.434 281.039 936.762 L 278.797 966.679 C 268.341 965.898 257.959 964.334 247.738 962.002 L 261.142 903.526 Z" id="path1-4" fill="#ffff00" stroke-linecap="round" stroke-miterlimit="10" stroke-width="2"/>
    <path d="M 221.881 889.099 L 176.881 966.999 C 166.524 961.012 156.63 954.26 147.281 946.799 L 184.681 899.899 C 177.667 894.298 171.082 888.181 164.981 881.599 L 120.981 922.399 C 112.826 913.637 105.339 904.277 98.581 894.399 L 148.181 860.599 C 143.139 853.177 138.66 845.388 134.781 837.299 L 80.681 863.299 C 75.487 852.508 71.108 841.343 67.581 829.899 L 153.581 803.399 C 164.724 839.557 189.12 870.168 221.881 889.099" paint-order="fill stroke markers" id="path2-4" fill="#ffff00" stroke-linecap="round" stroke-miterlimit="10" stroke-width="2"/>
    <path d="M 146.281 782.659 L 57.281 796.059 C 55.495 784.209 54.599 772.242 54.601 760.259 L 114.601 760.259 C 114.602 751.288 115.274 742.329 116.611 733.459 L 57.311 724.519 C 59.093 712.669 61.761 700.97 65.291 689.519 L 122.591 707.219 C 125.24 698.652 128.526 690.295 132.421 682.219 L 78.321 656.219 C 83.503 645.42 89.486 635.024 96.221 625.119 L 170.621 675.819 C 149.263 707.123 140.546 745.35 146.221 782.819" paint-order="fill stroke markers" id="path3-4" fill="#ffff00" stroke-linecap="round" stroke-miterlimit="10" stroke-width="2"/>
    <path d="M 185.321 657.619 L 119.321 596.419 C 127.466 587.64 136.257 579.484 145.621 572.019 L 183.021 618.919 C 190.031 613.305 197.452 608.224 205.221 603.719 L 175.221 551.719 C 185.583 545.72 196.38 540.506 207.521 536.119 L 229.421 592.019 C 237.778 588.738 246.368 586.087 255.121 584.089 L 241.721 525.589 C 253.404 522.921 265.27 521.133 277.221 520.239 L 283.951 610.039 C 246.19 612.866 210.895 629.87 185.151 657.639" paint-order="fill stroke markers" id="path4-4" fill="#ffff00" stroke-linecap="round" stroke-miterlimit="10" stroke-width="2"/>
    <path d="M 307.361 611.699 L 314.091 521.899 C 326.041 522.793 337.907 524.581 349.591 527.249 L 336.191 585.749 C 344.943 587.747 353.534 590.398 361.891 593.679 L 383.791 537.879 C 394.931 542.266 405.728 547.48 416.091 553.479 L 386.091 605.479 C 393.859 609.984 401.28 615.065 408.291 620.679 L 445.691 573.779 C 455.054 581.244 463.845 589.4 471.991 598.179 L 405.991 659.379 C 380.246 631.61 344.952 614.606 307.191 611.779" paint-order="fill stroke markers" id="path5-8" fill="#ffff00" stroke-linecap="round" stroke-miterlimit="10" stroke-width="2"/>
    <path d="M 420.881 677.179 L 495.281 626.479 C 502.015 636.384 507.998 646.78 513.181 657.579 L 459.081 683.579 C 462.975 691.655 466.261 700.012 468.911 708.579 L 526.211 690.879 C 536.76 725.171 539.487 761.393 534.191 796.879 L 445.191 783.479 C 446.31 776.064 446.871 768.577 446.871 761.079 L 506.871 761.079 C 506.869 750.601 506.084 740.139 504.521 729.779 L 445.221 738.719 C 441.853 716.449 433.513 695.224 420.821 676.619" paint-order="fill stroke markers" id="path6-7" fill="#ffff00" stroke-linecap="round" stroke-miterlimit="10" stroke-width="2"/>
    <path d="M 436.761 801.54 L 465.461 810.38 C 460.149 827.553 452.295 843.833 442.161 858.68 L 491.761 892.48 C 485.003 902.358 477.515 911.718 469.361 920.48 L 425.361 879.68 C 419.259 886.262 412.674 892.379 405.661 897.98 L 424.361 921.38 C 416.181 927.917 407.523 933.834 398.461 939.08 L 368.461 887.08 C 401.221 868.149 425.617 837.538 436.761 801.38" paint-order="fill stroke markers" id="path7-7" fill="#ffff00" stroke-linecap="round" stroke-miterlimit="10" stroke-width="2"/>
  </g>
</svg>