<?xml version="1.0" encoding="UTF-8" ?>
<!DOCTYPE svg PUBLIC "-//W3C//DTD SVG 1.1//EN" "http://www.w3.org/Graphics/SVG/1.1/DTD/svg11.dtd">
<svg xmlns="http://www.w3.org/2000/svg" xmlns:xlink="http://www.w3.org/1999/xlink"   > 

  <symbol id="home" viewBox="0 0 576 512">
    <path
      d="M280 148L96 300V464a16 16 0 0 0 16 16l112-.29a16 16 0 0 0 15-16V368a16 16 0 0 1 16-16h64a16 16 0 0 1 16 16v95a16 16 0 0 0 16 16L464 480a16 16 0 0 0 16-16V300L295 148a12.19 12 0 0 0-15 0zM571 251L488 182L318 43a48 48 0 0 0-61 0L4 251a12 12 0 0 0-1.6 17l25 31A12 12 0 0 0 45 301l235-194a12 12 0 0 1 15 0L531 301a12 12 0 0 0 16.9-1.6l25.5-31a12 12 0 0 0-1.7-17z" />
  </symbol>
  <symbol id="check" viewBox="0 0 16 16">
    <path d="M16 8A8 8 0 1 1 0 8a8 8 0 0 1 16 0zm-3.97-3.03a.75.75 0 0 0-1.08.022L7.477 9.417 5.384 7.323a.75.75 0 0 0-1.06 1.06L6.97 11.03a.75.75 0 0 0 1.079-.02l3.992-4.99a.75.75 0 0 0-.01-1.05z"/>
  </symbol>
  <symbol id="info" viewBox="0 0 16 16">
    <path d="M8 16A8 8 0 1 0 8 0a8 8 0 0 0 0 16zm.93-9.412-1 4.705c-.07.34.029.533.304.533.194 0 .487-.07.686-.246l-.088.416c-.287.346-.92.598-1.465.598-.703 0-1.002-.422-.808-1.319l.738-3.468c.064-.293.006-.399-.287-.47l-.451-.081.082-.381 2.29-.287zM8 5.5a1 1 0 1 1 0-2 1 1 0 0 1 0 2z"/>
  </symbol>
  <symbol id="warning" viewBox="0 0 16 16">
    <path d="M8.982 1.566a1.13 1.13 0 0 0-1.96 0L.165 13.233c-.457.778.091 1.767.98 1.767h13.713c.889 0 1.438-.99.98-1.767L8.982 1.566zM8 5c.535 0 .954.462.9.995l-.35 3.507a.552.552 0 0 1-1.1 0L7.1 5.995A.905.905 0 0 1 8 5zm.002 6a1 1 0 1 1 0 2 1 1 0 0 1 0-2z"/>
  </symbol>
<symbol id="danger" viewBox="0 0 16 16">
  <path d="M8 1a7 7 0 1 0 0 14A7 7 0 0 0 8 1ZM0 8a8 8 0 1 1 16 0A8 8 0 0 1 0 8Z"/>
  <path d="M9.653 5.496A2.986 2.986 0 0 0 8 5c-.61 0-1.179.183-1.653.496L4.694 2.992A5.972 5.972 0 0 1 8 2c1.222 0 2.358.365 3.306.992L9.653 5.496Zm1.342 2.324a2.986 2.986 0 0 1-.884 2.312 3.01 3.01 0 0 1-.769.552l1.342 2.683c.57-.286 1.09-.66 1.538-1.103a5.986 5.986 0 0 0 1.767-4.624l-2.994.18Zm-5.679 5.548 1.342-2.684A3 3 0 0 1 5.005 7.82l-2.994-.18a6 6 0 0 0 3.306 5.728ZM10 8a2 2 0 1 1-4 0 2 2 0 0 1 4 0Z"/>
</symbol>

  <symbol id="more" viewBox="0 0 16 16">
    <path d="M9.5 13a1.5 1.5 0 1 1-3 0 1.5 1.5 0 0 1 3 0zm0-5a1.5 1.5 0 1 1-3 0 1.5 1.5 0 0 1 3 0zm0-5a1.5 1.5 0 1 1-3 0 1.5 1.5 0 0 1 3 0z"/>
  </symbol>
  <symbol id="camera" viewBox="0 0 24 24">
    <path d="M23 19a2 2 0 0 1-2 2H3a2 2 0 0 1-2-2V8a2 2 0 0 1 2-2h4l2-3h6l2 3h4a2 2 0 0 1 2 2z" />
    <circle cx="12" cy="13" r="4" />
 </symbol>
  <symbol id="gear" viewBox="0 0 16 16">
  <path d="M9.405 1.05c-.413-1.4-2.397-1.4-2.81 0l-.1.34a1.464 1.464 0 0 1-2.105.872l-.31-.17c-1.283-.698-2.686.705-1.987 1.987l.169.311c.446.82.023 1.841-.872 2.105l-.34.1c-1.4.413-1.4 2.397 0 2.81l.34.1a1.464 1.464 0 0 1 .872 2.105l-.17.31c-.698 1.283.705 2.686 1.987 1.987l.311-.169a1.464 1.464 0 0 1 2.105.872l.1.34c.413 1.4 2.397 1.4 2.81 0l.1-.34a1.464 1.464 0 0 1 2.105-.872l.31.17c1.283.698 2.686-.705 1.987-1.987l-.169-.311a1.464 1.464 0 0 1 .872-2.105l.34-.1c1.4-.413 1.4-2.397 0-2.81l-.34-.1a1.464 1.464 0 0 1-.872-2.105l.17-.31c.698-1.283-.705-2.686-1.987-1.987l-.311.169a1.464 1.464 0 0 1-2.105-.872l-.1-.34zM8 10.93a2.929 2.929 0 1 1 0-5.86 2.929 2.929 0 0 1 0 5.858z"/>
 </symbol>
   <symbol id="sidemenu" viewBox="0 0 1000 1000">
 <path d="M500,10C229.4,10,10,229.4,10,500c0,270.7,219.4,490,490,490c270.7,0,490-219.3,490-490C990,229.4,770.7,10,500,10z M761.3,728.7H238.7c-18,0-32.7-14.7-32.7-32.7s14.6-32.7,32.7-32.7h522.7c18,0,32.7,14.7,32.7,32.7C794,714,779.3,728.7,761.3,728.7z M761.3,532.7H238.7c-18,0-32.7-14.7-32.7-32.7c0-18,14.6-32.7,32.7-32.7h522.7c18,0,32.7,14.6,32.7,32.7C794,518,779.3,532.7,761.3,532.7z M761.3,336.7H238.7c-18,0-32.7-14.6-32.7-32.7c0-18,14.6-32.7,32.7-32.7h522.7c18,0,32.7,14.6,32.7,32.7C794,322,779.3,336.7,761.3,336.7z"/> 
</symbol>
<symbol id="chevronright"  viewBox='0 0 16 16'>
  <path fill='none' stroke='currentColor' stroke-linecap='round' stroke-linejoin='round' stroke-width='4'  d="M4.646 1.646a.5.5 0 0 1 .708 0l6 6a.5.5 0 0 1 0 .708l-6 6a.5.5 0 0 1-.708-.708L10.293 8 4.646 2.354a.5.5 0 0 1 0-.708"/>
 
</symbol>


<symbol id="chevron"  viewBox='0 0 16 16'>
<path fill='none' stroke='currentColor' stroke-linecap='round' stroke-linejoin='round' stroke-width='4' d='M5 14l6-6-6-6'/>
</symbol>

<symbol   viewBox="20 31 162 170"   id="namaskar" >
 <path d="m103 31.7c-46.1 0.701-86.9 44.7-82.8 90.9 3.17 42.9 44.7 78.4 87.6 75.3 35.1-1.64 66.9-28.2 75.6-62.1 6.06-21.8 1.81-45.9-11.2-64.4-15.3-22.9-41.4-38.9-69.2-39.6zm49.3 132c-7.15 5.15-13.1 14.7-22.9 13.9-9.02-2.08-5.48-13.9-7.68-20.6 0.496-6.12 12.3-4.83 17.2-8.69 7.25-3.94 11.1-12 13.9-19.5 3.14-9.77 1.21-20.3-2.74-29.4-2.82-8.2-1.19-23.3-9.52-26.4-11.2 2.23-22.4 10.2-34.1 5.59-13.3 1.09-27-0.268-39.6-4.8-9.24 1.5-7.75 12.5-8.04 19.4-1.44 10.6-9.68 20.6-5.9 31.9 3.18 13.5 13.9 26.9 28.6 27.3 8.93 4.65 1.89 15.2-0.0509 22.1-4.54 10.1-17.9-2.17-23.6-6.85-23.6-19.7-31.9-55.9-17.8-83.5 13.1-27.4 45.3-44.7 75.3-38.3 27.4 4.89 51.1 27.2 55.9 54.8 4.47 22.4-2.24 47.3-19.1 63.1z" fill="currentColor" stroke-width=".169"/>
 
 <path d="m79.1 180c-36.3-12.4-55.6-57.8-39.7-92.6 14.8-36.2 62.6-53.4 96.8-33.8 33.4 17.4 47.4 63.9 27.2 96.1-8.64 14.7-22.7 26.3-39.1 31.4 4.76-11-12.6-29.7 5.24-28.3 18.8-4.86 29.8-26.8 24.3-44.8-12.2-10 3.62-36.3-16.5-35.4-10.9 11.7-25.6 4.29-39 5.66-13.5 10.7-31.7-16.7-38.7 0.371 2.88 13.9-6.25 25-7.35 38.5-0.919 19.7 15.4 36.9 35.1 37.3-5.37 5.65-1.01 25.2-8.2 25.5z" fill="#fff" stop-color="currentColor" stroke-width=".54" style="font-variation-settings:normal"/>
  <path d="m107 133c-6.82 3.36-15.8-1.94-3.68-0.849 0.939 0.606 2.83-0.252 3.68 0.849z" stroke="#fff" stroke-width="2.69"/>
 <g>
  <circle class="eyeball" cx="85" cy="113" r="15" fill="#fff"/>
  <circle class="pupil" cx="85" cy="113" r="5" fill="currentColor"/>
  <circle class="eyeball" cx="120" cy="113" r="15" fill="#fff"/>
  <circle class="pupil" cx="120" cy="113" r="5" fill="currentColor"/>
 </g>
 
</symbol>

<symbol   viewBox="20 31 162 170"   id="namaskar2" >
<path d="M228 319.5H12C5.649 319.5.5 314.351.5 308V12C.5 5.649 5.649.5 12 .5h147.175c.396 0 .777.157 1.058.436l78.824 78.332a1.5 1.5 0 0 1 .443 1.064V308c0 6.351-5.149 11.5-11.5 11.5Z" fill="#FFF9F2" stroke="#FFC681"/><path d="M160.5 1.207 238.793 79.5H172c-6.351 0-11.5-5.149-11.5-11.5V1.207Z" fill="#FFF9F2" stroke="#FFC681"/><path d="M68.844 244.072c.33 6.627 5.89 10.842 14.295 10.842 8.886 0 14.396-4.418 14.396-11.527 0-5.561-3.123-8.658-10.562-10.36l-4.215-.965c-4.545-1.066-6.399-2.513-6.399-5.027 0-3.174 2.793-5.256 7.008-5.256 4.012 0 6.856 2.057 7.313 5.332h6.271c-.304-6.271-5.865-10.664-13.558-10.664-8.202 0-13.635 4.418-13.635 11.02 0 5.433 3.123 8.709 9.775 10.232l4.748 1.092c4.697 1.092 6.703 2.717 6.703 5.383 0 3.123-3.123 5.383-7.44 5.383-4.646 0-7.896-2.133-8.302-5.485h-6.398ZM121.59 254l12.67-36.639h-6.982l-9.141 29.149h-.432l-9.216-29.149h-7.237L114.049 254h7.541Zm49.141-14.625v-4.57h-15.209v5.002h8.811l-.026.761c-.101 5.18-3.91 8.659-9.496 8.659-6.525 0-10.613-5.18-10.613-13.61 0-8.303 4.012-13.482 10.41-13.482 4.697 0 7.973 2.336 9.293 6.576h6.525c-1.168-7.465-7.363-12.264-15.818-12.264-10.435 0-17.113 7.491-17.113 19.221 0 11.857 6.601 19.246 17.215 19.246 9.775 0 16.021-6.068 16.021-15.539Z" fill="#FF8C02"/><path fill-rule="evenodd" clip-rule="evenodd" d="M99 117a4 4 0 0 0-4 4v27.939a33.11 33.11 0 0 1-2 .061c-17.673 0-32-14.327-32-32 0-17.673 14.327-32 32-32 17.673 0 32 14.327 32 32H99Zm26 0h30a4 4 0 0 1 4 4v56a4 4 0 0 1-4 4H99a4 4 0 0 1-4-4v-28.061c16.741-1.033 30-14.938 30-31.939Z" fill="#FFC681"/>

</symbol>
</svg>
