<svg xmlns="http://www.w3.org/2000/svg" xmlns:xlink="http://www.w3.org/1999/xlink" viewBox="0 0 65 76" fill="#fff" fill-rule="evenodd" stroke="#000" stroke-linecap="round" stroke-linejoin="round"><use xlink:href="#A" x=".5" y=".5"/><symbol id="A" overflow="visible"><g stroke="none" fill-rule="nonzero"><path d="M26.596 71.386l-.165-4.29c-.09-2.22-.9-4.155-2.295-5.85l-1.695-1.98a4.43 4.43 0 0 0-3.75-1.65l-3.33.3c-.855.045-1.74.075-2.58-.075-1.68-.3-2.7-1.59-2.775-3.315l-.12-2.685c-.045-.855-.39-1.575-.96-2.205-.135-.15-.15-.465-.09-.675.06-.255.285-.465.405-.705.465-.93.045-1.95-.945-2.28-.21-.075-.42-.12-.705-.195l.675-3.675c.27-1.485-.255-2.25-1.74-2.415l-2.52-.165c-.27-.03-.54-.15-.81-.24.105-.285.15-.615.345-.84l1.605-1.86c1.815-2.46 2.805-5.31 3.465-8.25l1.335-7.545c1.23-7.23 5.34-12.195 11.97-15.12 5.145-2.265 10.575-2.775 16.125-2.31 3.99.33 7.83 1.275 11.43 3.06 3.69 1.815 6.78 4.305 8.79 7.98 1.11 2.04 1.575 4.275 1.83 6.555.255 2.34.48 4.695.63 7.05.15 2.49-.54 4.815-1.74 6.99l-3.72 6.54c-2.64 4.605-4.65 9.45-5.325 14.745-.33 2.55-.24 5.145-.315 7.725-.015.36.09.63-.405.78l-22.26 6.57c-.075-.015-.15 0-.36.03z"/><path d="M4.846 42.961l-1.725-.165c-2.325-.345-3.705-2.625-2.88-4.83.27-.705.675-1.425 1.2-1.95 2.055-2.04 3.12-4.59 3.78-7.32.63-2.595 1.065-5.25 1.485-7.89 1.155-7.455 5.07-12.99 11.565-16.695 5.895-3.36 12.3-4.485 19.02-4.005 5.505.39 10.695 1.845 15.465 4.65 3.9 2.295 7.05 5.325 8.94 9.495.81 1.785 1.26 3.66 1.44 5.595.27 2.835.555 5.685.69 8.535.135 2.715-.57 5.28-1.83 7.665a137.76 137.76 0 0 1-3.36 5.97c-2.415 4.11-4.395 8.4-5.31 13.11-.645 3.27-.825 6.555-.405 9.855.18 1.5-.135 2.025-1.59 2.46l-24.96 7.395c-1.38.405-2.115.06-2.49-1.305-.285-1.095-.45-2.235-.585-3.36-.09-.81-.015-1.635-.03-2.46-.015-1.665-.495-3.18-1.62-4.44-.51-.57-1.035-1.14-1.515-1.755s-1.065-.825-1.83-.75c-1.425.135-2.865.375-4.29.33-2.295-.075-4.275-1.005-5.79-2.805-1.05-1.26-1.47-2.73-1.47-4.35 0-1.065.03-2.085-.825-2.97-.615-.63-.57-1.545-.405-2.415.045-.21.03-.525-.09-.66-.99-1.035-1.215-2.235-.855-3.585.165-.42.195-.855.27-1.35zm21.75 28.425c.21-.03.285-.03.36-.045l22.26-6.57c.495-.15.39-.42.405-.78.075-2.58 0-5.175.315-7.725.675-5.28 2.685-10.14 5.325-14.745l3.72-6.54c1.2-2.175 1.89-4.485 1.74-6.99-.15-2.355-.375-4.695-.63-7.05-.255-2.28-.705-4.5-1.83-6.555-2.01-3.675-5.1-6.165-8.79-7.98-3.6-1.77-7.44-2.73-11.43-3.06-5.55-.465-10.98.045-16.125 2.31-6.63 2.925-10.755 7.89-11.97 15.12-.42 2.52-.765 5.055-1.335 7.545-.675 2.94-1.65 5.775-3.465 8.25-.48.66-1.095 1.215-1.605 1.86-.18.225-.225.555-.345.84.27.075.54.21.81.24.84.075 1.68.075 2.52.165 1.485.165 2.01.93 1.74 2.415l-.675 3.675.705.195c.99.33 1.41 1.35.945 2.28-.12.24-.33.45-.405.705-.06.21-.045.525.09.675.57.645.9 1.365.96 2.205l.12 2.685c.075 1.725 1.08 3.015 2.775 3.315.84.15 1.725.12 2.58.075 1.11-.06 2.22-.255 3.33-.3 1.5-.06 2.76.48 3.75 1.65.555.675 1.155 1.305 1.695 1.98 1.38 1.71 2.205 3.645 2.295 5.85l.165 4.305zm24.375-55.275c-.165.39-.27.75-.48 1.035-.375.555-.78 1.095-1.23 1.59-.375.42-.345.78-.165 1.275.21.54.495.78 1.05.81.615.03 1.23.135 1.845.21.915.12 1.485.6 1.545 1.53.075 1.38.06 2.775-.015 4.155-.045.825-.63 1.32-1.47 1.425l-2.22.3c-.645.09-1.14 1.245-.75 1.785.435.6.915 1.185 1.35 1.785.57.78.615 1.455-.03 2.16a42.1 42.1 0 0 1-2.835 2.835c-.675.6-1.38.57-2.115.03-.6-.435-1.17-.915-1.77-1.35-.555-.42-1.71.075-1.815.765l-.285 2.07c-.12.975-.57 1.53-1.545 1.59a30.86 30.86 0 0 1-4.08 0c-.945-.06-1.38-.645-1.5-1.575-.075-.66-.18-1.335-.27-1.995-.135-.855-1.245-1.305-1.935-.78l-1.665 1.275c-.735.54-1.44.585-2.115 0-1.005-.915-1.98-1.875-2.895-2.895-.615-.675-.555-1.365-.015-2.1.345-.465.66-.945 1.05-1.35.51-.525.57-1.02.225-1.65-.195-.36-.33-.585-.795-.615-.69-.03-1.38-.165-2.07-.27-.885-.12-1.44-.585-1.5-1.485-.075-1.384-.075-2.771 0-4.155.045-.885.615-1.35 1.515-1.47.54-.075 1.08-.165 1.62-.18.705-.03 1.245-.285 1.335-1.05.03-.33 0-.72-.165-.975-.375-.615-.87-1.14-1.29-1.725-.48-.675-.525-1.38.03-1.995a45.3 45.3 0 0 1 2.94-2.94c.66-.6 1.38-.54 2.115.015.585.435 1.125.885 1.71 1.32.615.45 1.74-.03 1.845-.78l.285-2.07c.12-.93.6-1.5 1.515-1.545a39.63 39.63 0 0 1 4.005-.015c1.02.06 1.485.6 1.605 1.62l.27 2.07c.105.69 1.26 1.17 1.83.735.6-.45 1.17-.915 1.785-1.35.72-.525 1.47-.57 2.115.03.99.9 1.92 1.875 2.82 2.85.33.255.435.66.615 1.05zm-4.545 17.64c.87-.585.87-.585.3-1.365l-.99-1.305c-.45-.6-.465-1.215-.15-1.89a47.31 47.31 0 0 0 1.05-2.535c.255-.66.66-1.095 1.38-1.185.66-.09 1.32-.21 1.995-.255.42-.03.555-.195.555-.6s-.15-.585-.555-.615c-.645-.06-1.275-.165-1.92-.24-.81-.105-1.245-.585-1.5-1.35-.24-.75-.525-1.5-.9-2.19-.45-.825-.405-1.545.18-2.265.465-.57.9-1.17 1.395-1.815-.255-.27-.465-.51-.705-.75l-1.92 1.47c-.66.525-1.32.555-2.07.18-.765-.39-1.59-.69-2.4-.975-.66-.24-1.125-.63-1.23-1.35-.105-.69-.15-1.38-.3-2.055-.045-.21-.33-.45-.54-.51-.345-.105-.615.06-.645.495-.06.66-.18 1.335-.255 1.995-.09.795-.57 1.2-1.305 1.455-.765.255-1.545.54-2.265.915-.81.42-1.5.405-2.205-.165-.585-.48-1.2-.93-1.77-1.365-.735.39-.84.795-.3 1.365.39.405.705.9 1.05 1.35.435.57.42 1.17.12 1.815-.39.825-.735 1.68-1.05 2.535-.24.675-.645 1.11-1.365 1.215l-1.92.255c-.39.045-.66.12-.66.615 0 .465.195.585.615.615.615.045 1.23.18 1.845.24.825.09 1.26.57 1.515 1.335s.555 1.545.93 2.265c.42.81.39 1.5-.18 2.205-.465.57-.9 1.17-1.425 1.86l.75.705 1.935-1.485c.645-.51 1.29-.525 2.01-.18.795.375 1.62.72 2.46 1.035.675.24 1.095.645 1.2 1.365.09.66.195 1.32.255 1.995.03.39.18.57.6.57.405 0 .585-.135.63-.54.045-.615.15-1.23.225-1.845.105-.87.6-1.35 1.425-1.62.75-.24 1.485-.555 2.19-.9.885-.435 1.5-.405 2.265.21l1.65 1.29zm-8.415-2.325c-3.525-.015-6.84-3.36-6.81-6.885.03-3.48 3.39-6.81 6.855-6.765 3.525.045 6.795 3.315 6.795 6.81.03 3.525-3.315 6.855-6.84 6.84zm0-3.21c2.25 0 3.63-1.365 3.63-3.6 0-2.205-1.38-3.615-3.555-3.615-2.31 0-3.66 1.335-3.66 3.645.015 2.19 1.38 3.555 3.585 3.57z" fill="#000000"/></g></symbol></svg>