<?xml version="1.0" encoding="UTF-8" standalone="no"?>
<svg
   xmlns:dc="http://purl.org/dc/elements/1.1/"
   xmlns:cc="http://creativecommons.org/ns#"
   xmlns:rdf="http://www.w3.org/1999/02/22-rdf-syntax-ns#"
   xmlns:svg="http://www.w3.org/2000/svg"
   xmlns="http://www.w3.org/2000/svg"
   xmlns:sodipodi="http://sodipodi.sourceforge.net/DTD/sodipodi-0.dtd"
   xmlns:inkscape="http://www.inkscape.org/namespaces/inkscape"
   version="1.1"
   id="Layer_1"
   x="0px"
   y="0px"
   width="100px"
   height="77.036px"
   viewBox="0 0 100 77.036"
   enable-background="new 0 0 100 77.036"
   xml:space="preserve"
   sodipodi:docname="No-Knowledge_transfer.svg"
   inkscape:version="0.92.1 r15371"><metadata
   id="metadata11920"><rdf:RDF><cc:Work
       rdf:about=""><dc:format>image/svg+xml</dc:format><dc:type
         rdf:resource="http://purl.org/dc/dcmitype/StillImage" /><dc:title></dc:title></cc:Work></rdf:RDF></metadata><defs
   id="defs11918" /><sodipodi:namedview
   pagecolor="#ffffff"
   bordercolor="#666666"
   borderopacity="1"
   objecttolerance="10"
   gridtolerance="10"
   guidetolerance="10"
   inkscape:pageopacity="0"
   inkscape:pageshadow="2"
   inkscape:window-width="1366"
   inkscape:window-height="706"
   id="namedview11916"
   showgrid="false"
   inkscape:zoom="7.0300339"
   inkscape:cx="50"
   inkscape:cy="55.58762"
   inkscape:window-x="-8"
   inkscape:window-y="-8"
   inkscape:window-maximized="1"
   inkscape:current-layer="Layer_1" />
<circle
   fill="#ffffff"
   cx="50"
   cy="3.125"
   r="3.125"
   id="circle11897" />
<circle
   fill="#ffffff"
   cx="40.021"
   cy="4.952"
   r="3.125"
   id="circle11899" />
<circle
   fill="#ffffff"
   cx="31.287"
   cy="9.998"
   r="3.125"
   id="circle11901" />
<circle
   fill="#ffffff"
   cx="24.803"
   cy="17.725"
   r="3.125"
   id="circle11903" />
<path
   fill="#ffffff"
   d="M45.67,53.313c0-0.004-0.002-0.005-0.004-0.01l-4.022-10.059c-0.249-11.273-9.479-20.373-20.811-20.373  C9.347,22.872,0,32.219,0,43.705c0,5.812,2.398,11.069,6.25,14.853v18.479h25v-7.248c5.743,0,9.375-3.675,9.375-9.419v-4.166h3.125  c1.151,0,2.083-0.933,2.083-2.084C45.833,53.863,45.67,53.313,45.67,53.313z M12.5,52.039c-1.725,0-3.125-1.4-3.125-3.125  c0-1.726,1.4-3.125,3.125-3.125s3.125,1.399,3.125,3.125C15.625,50.639,14.225,52.039,12.5,52.039z M12.5,43.705  c-1.725,0-3.125-1.399-3.125-3.125c0-1.725,1.4-3.125,3.125-3.125s3.125,1.399,3.125,3.125C15.625,42.306,14.225,43.705,12.5,43.705  z M20.833,52.039c-1.726,0-3.125-1.4-3.125-3.125c0-1.726,1.399-3.125,3.125-3.125c1.725,0,3.125,1.399,3.125,3.125  C23.958,50.639,22.559,52.039,20.833,52.039z M20.833,43.705c-1.726,0-3.125-1.399-3.125-3.125c0-1.725,1.399-3.125,3.125-3.125  c1.725,0,3.125,1.399,3.125,3.125C23.958,42.306,22.559,43.705,20.833,43.705z M20.833,35.372c-1.726,0-3.125-1.4-3.125-3.125  s1.399-3.125,3.125-3.125c1.725,0,3.125,1.4,3.125,3.125S22.559,35.372,20.833,35.372z M29.167,52.039  c-1.725,0-3.125-1.4-3.125-3.125c0-1.726,1.4-3.125,3.125-3.125c1.726,0,3.125,1.399,3.125,3.125  C32.292,50.639,30.892,52.039,29.167,52.039z M29.167,43.705c-1.725,0-3.125-1.399-3.125-3.125c0-1.725,1.4-3.125,3.125-3.125  c1.726,0,3.125,1.399,3.125,3.125C32.292,42.306,30.892,43.705,29.167,43.705z"
   id="path11905" />
<circle
   fill="#ffffff"
   cx="59.855"
   cy="4.952"
   r="3.125"
   id="circle11907" />
<circle
   fill="#ffffff"
   cx="68.59"
   cy="9.998"
   r="3.125"
   id="circle11909" />
<path
   style="opacity:1;fill:#ffffff;fill-opacity:1;stroke:none;stroke-width:3.55599999;stroke-linecap:round;stroke-linejoin:bevel;stroke-miterlimit:4;stroke-dasharray:none;stroke-dashoffset:1.21209455;stroke-opacity:1;paint-order:stroke fill markers"
   d="M 75.630859 12.652344 C 75.523132 12.641193 75.292718 13.940127 75.123047 14.601562 A 3.125 3.125 0 0 0 75.072266 14.599609 A 3.125 3.125 0 0 0 74.798828 14.613281 C 74.568511 13.969387 74.219326 12.701595 74.113281 12.722656 C 74.007387 12.743687 74.169583 14.042728 74.203125 14.726562 A 3.125 3.125 0 0 0 73.890625 14.833984 C 73.48005 14.28436 72.780299 13.1871 72.685547 13.238281 C 72.591022 13.28934 73.121997 14.469474 73.357422 15.115234 A 3.125 3.125 0 0 0 73.087891 15.314453 C 72.532488 14.908699 71.547862 14.073811 71.472656 14.150391 C 71.39762 14.226798 72.245322 15.1916 72.662109 15.740234 A 3.125 3.125 0 0 0 72.460938 16.013672 C 71.809293 15.788581 70.63117 15.285811 70.582031 15.380859 C 70.533002 15.475697 71.62008 16.14308 72.181641 16.544922 A 3.125 3.125 0 0 0 72.070312 16.869141 C 71.379823 16.845531 70.112633 16.713363 70.09375 16.818359 C 70.074883 16.923268 71.305061 17.238596 71.960938 17.457031 A 3.125 3.125 0 0 0 71.947266 17.724609 A 3.125 3.125 0 0 0 71.949219 17.802734 C 71.281351 17.983592 70.037905 18.230269 70.050781 18.335938 C 70.063684 18.441829 71.334643 18.380945 72.025391 18.396484 A 3.125 3.125 0 0 0 72.117188 18.728516 C 71.533081 19.098036 70.413512 19.701496 70.457031 19.798828 C 70.500573 19.896211 71.698639 19.462191 72.363281 19.273438 A 3.125 3.125 0 0 0 72.550781 19.5625 C 72.102276 20.087368 71.205002 20.995862 71.275391 21.076172 C 71.345885 21.156603 72.368601 20.384945 72.947266 20.009766 A 3.125 3.125 0 0 0 73.208984 20.228516 C 72.935991 20.861344 72.344396 22.000511 72.435547 22.056641 C 72.526838 22.112856 73.28073 21.066906 73.722656 20.539062 A 3.125 3.125 0 0 0 74.033203 20.667969 C 73.959561 21.351738 73.728087 22.623545 73.832031 22.650391 C 73.936238 22.677304 74.352547 21.44499 74.619141 20.8125 A 3.125 3.125 0 0 0 74.949219 20.84375 C 75.080731 21.516611 75.236086 22.811646 75.34375 22.806641 C 75.451681 22.801623 75.483871 21.49128 75.552734 20.810547 A 3.125 3.125 0 0 0 75.873047 20.744141 C 76.196717 21.346254 76.730265 22.548366 76.832031 22.511719 C 76.934086 22.474968 76.576991 21.199967 76.443359 20.53125 A 3.125 3.125 0 0 0 76.724609 20.376953 C 77.210369 20.854891 78.081211 21.854314 78.167969 21.789062 C 78.255192 21.723461 77.528905 20.600795 77.207031 20.003906 A 3.125 3.125 0 0 0 77.425781 19.777344 C 78.02767 20.087607 79.168312 20.795565 79.232422 20.707031 C 79.296791 20.618141 78.261303 19.753079 77.78125 19.279297 A 3.125 3.125 0 0 0 77.921875 19.001953 C 78.583526 19.118383 79.89229 19.461736 79.927734 19.357422 C 79.963261 19.252864 78.711077 18.726483 78.117188 18.416016 A 3.125 3.125 0 0 0 78.169922 18.115234 C 78.833862 18.03098 80.194132 17.973799 80.197266 17.863281 C 80.200395 17.75289 78.84842 17.617722 78.189453 17.496094 A 3.125 3.125 0 0 0 78.152344 17.195312 A 3.125 3.125 0 0 0 78.152344 17.193359 C 78.763474 16.916969 80.043194 16.461786 80.013672 16.355469 C 79.984194 16.249309 78.655435 16.518915 77.988281 16.597656 A 3.125 3.125 0 0 0 77.863281 16.320312 C 78.365477 15.876207 79.454107 15.063638 79.394531 14.970703 C 79.335143 14.87806 78.146217 15.524395 77.53125 15.796875 A 3.125 3.125 0 0 0 77.330078 15.564453 C 77.68137 14.990058 78.476554 13.899078 78.392578 13.828125 C 78.30891 13.757431 77.370366 14.719576 76.861328 15.164062 A 3.125 3.125 0 0 0 76.597656 14.998047 C 76.766329 14.342019 77.202109 13.075991 77.101562 13.033203 C 77.001375 12.990568 76.393452 14.177133 76.037109 14.755859 A 3.125 3.125 0 0 0 75.728516 14.671875 C 75.69735 13.991672 75.738937 12.663531 75.630859 12.652344 z "
   id="path12470" />
<path
   style="fill:#ffffff"
   d="M 79.167969 22.871094 C 67.834969 22.871094 58.605469 31.971141 58.355469 43.244141 L 54.333984 53.304688 C 54.331984 53.309688 54.328125 53.310453 54.328125 53.314453 C 54.328125 53.314453 54.167969 53.863141 54.167969 54.119141 C 54.167969 55.270141 55.099 56.203125 56.25 56.203125 L 59.375 56.203125 L 59.375 60.369141 C 59.375 66.113141 63.007 69.789062 68.75 69.789062 L 68.75 77.037109 L 93.75 77.037109 L 93.75 58.558594 C 97.602 54.775594 100 49.518078 100 43.705078 C 100 32.219078 90.653969 22.871094 79.167969 22.871094 z M 80.078125 30.279297 C 83.00501 30.279297 85.351512 30.961018 87.117188 32.324219 C 88.89877 33.687419 89.791016 35.548254 89.791016 37.908203 C 89.791016 39.036874 89.526884 40.188683 89.001953 41.361328 C 88.477023 42.519316 87.109508 44.065135 84.898438 46 C 83.228204 47.451149 82.107808 48.587351 81.535156 49.408203 C 80.962505 50.229055 80.675781 51.115585 80.675781 52.068359 C 80.675781 53.138398 80.953021 54.252169 81.509766 55.410156 L 77.048828 55.410156 C 76.651154 54.325459 76.453125 53.168778 76.453125 51.9375 C 76.453125 50.970067 76.690759 49.993809 77.167969 49.011719 C 77.645178 48.01497 78.8618 46.644701 80.818359 44.900391 C 82.822639 43.15608 84.048745 41.844328 84.494141 40.964844 C 84.955443 40.08536 85.185547 39.25052 85.185547 38.458984 C 85.185547 37.05181 84.644175 35.944866 83.5625 35.138672 C 82.480825 34.31782 81.10578 33.908203 79.435547 33.908203 C 76.524569 33.908203 73.978085 34.963457 71.798828 37.074219 L 71.798828 32.566406 C 74.455295 31.041967 77.214868 30.279297 80.078125 30.279297 z M 79.53125 59.808594 C 80.37432 59.808594 81.096706 60.087525 81.701172 60.644531 C 82.305637 61.18688 82.607422 61.83739 82.607422 62.599609 C 82.607422 63.332513 82.305637 63.97815 81.701172 64.535156 C 81.112613 65.077505 80.429833 65.349609 79.650391 65.349609 C 78.695972 65.349609 77.924496 65.070678 77.335938 64.513672 C 76.747379 63.956665 76.453125 63.317855 76.453125 62.599609 C 76.453125 61.83739 76.75491 61.18688 77.359375 60.644531 C 77.96384 60.087525 78.68818 59.808594 79.53125 59.808594 z "
   id="path11913" />
</svg>