<svg width="512" height="512" viewBox="0 0 512 512" xmlns="http://www.w3.org/2000/svg"><g fill="#fff"><path d="M213.199 351.408 169.934 461.33a236.76 236.76 0 0 0 68.842 15.714l-2.212 29.523c13.252.994 26.56.994 39.812 0l-2.213-29.523a236.76 236.76 0 0 0 68.843-15.714L299.74 351.408h-.007a118.375 118.375 0 0 1-86.67 0zm10.357 34.034a147.997 147.997 0 0 0 65.883 0h.007l13.176 57.709a207.169 207.169 0 0 1-30.652 4.615l-2.212-29.524c-8.843.663-17.722.663-26.564 0l-2.213 29.524a207.17 207.17 0 0 1-30.651-4.615z"/><path d="m184.81 371.204-44.41 76.878a236.91 236.91 0 0 1-29.211-19.935l36.91-46.284a177.72 177.72 0 0 1-19.442-18.06l-43.423 40.264a236.878 236.878 0 0 1-22.106-27.632l48.95-33.357a177.512 177.512 0 0 1-13.225-22.994l-53.39 25.659a236.839 236.839 0 0 1-12.928-32.962l84.871-26.152a148.033 148.033 0 0 0 67.404 84.575M110.202 266.161 22.37 279.385a236.797 236.797 0 0 1-2.645-35.33h59.213c0-8.853.664-17.695 1.983-26.448L22.4 208.784a236.77 236.77 0 0 1 7.875-34.54l56.548 17.467a177.497 177.497 0 0 1 9.701-24.672l-53.39-25.659a236.71 236.71 0 0 1 17.665-30.692l73.424 50.035a148.027 148.027 0 0 0-24.08 105.596M148.73 142.762 83.596 82.365a236.549 236.549 0 0 1 25.955-24.08l36.909 46.285a177.45 177.45 0 0 1 21.909-15l-29.607-51.318a236.742 236.742 0 0 1 31.876-15.396l21.613 55.167a177.47 177.47 0 0 1 25.363-7.826L204.39 12.464a236.651 236.651 0 0 1 35.034-5.28l6.642 88.622a148.028 148.028 0 0 0-97.504 46.976M269.168 97.444l6.642-88.621a236.687 236.687 0 0 1 35.034 5.28L297.62 71.835a177.506 177.506 0 0 1 25.363 7.826l21.612-55.068a236.856 236.856 0 0 1 31.877 15.395l-29.607 51.318a177.597 177.597 0 0 1 21.909 15l36.91-46.284a236.732 236.732 0 0 1 25.954 24.08l-65.134 60.397a148.03 148.03 0 0 0-97.503-46.976M381.199 162.065l73.423-50.035a236.934 236.934 0 0 1 17.666 30.692l-53.39 25.66a177.746 177.746 0 0 1 9.7 24.671l56.549-17.468a236.87 236.87 0 0 1 7.875 104.61L405.19 266.97a148.133 148.133 0 0 0 1.658-22.106h59.212a207.323 207.323 0 0 0-2.319-30.889l-58.522 8.823a148.029 148.029 0 0 0-24.08-61.285M396.87 284.794l28.324 8.724a177.694 177.694 0 0 1-22.994 47.666l48.949 33.357a236.99 236.99 0 0 1-22.106 27.632L385.62 361.91a177.894 177.894 0 0 1-19.442 18.06l18.455 23.093a207.339 207.339 0 0 1-25.56 17.467l-29.606-51.317a148.04 148.04 0 0 0 67.403-84.576" paint-order="fill stroke markers"/></g></svg>