<svg xmlns="http://www.w3.org/2000/svg" xmlns:xlink="http://www.w3.org/1999/xlink" viewBox="0 0 77 72" fill="#fff" fill-rule="evenodd" stroke="#000" stroke-linecap="round" stroke-linejoin="round"><use xlink:href="#A" x=".5" y=".5"/><symbol id="A" overflow="visible"><g stroke="none" fill-rule="nonzero"><path d="M28.354 62.895c1.575-6.945 3.225-8.685 8.145-8.865 6.03-.21 7.755 1.17 9.57 7.215.885-1.575 1.59-4.215 3.3-5.46 1.77-1.29 4.53-1.635 6.87-1.665 4.95-.06 6.825 2.085 7.74 8.22.225-.57.69 8.175.69 8.175-10.86-.045-7.29 0-18.15 0-10.965 0-21.915-.06-32.88.015-2.475.015-3.72-.555-3.165-3.33.375-1.92.33-3.915.615-5.85.3-2.055-.075-4.395 2.31-5.655 3.195-1.695 6.405-2.085 9.99-1.125 4.38 1.155 4.65 4.53 4.965 8.325zm26.79-9.255c-2.955-.015-4.98-2.505-4.98-6.12 0-2.91 2.28-5.25 5.07-5.22 2.82.03 5.025 2.4 4.965 5.325-.06 3.705-2.025 6.03-5.055 6.015zm-17.565.015c-3.18.03-5.01-2.085-5.1-5.895-.075-3.15 1.83-5.34 4.755-5.445 2.835-.09 5.1 2.16 5.145 5.115.06 3.705-1.86 6.195-4.8 6.225zm-18.105 0c-2.925-.015-4.935-2.565-4.86-6.165.06-2.955 2.295-5.22 5.085-5.175 2.88.045 4.8 2.235 4.755 5.4-.045 3.87-1.8 5.955-4.98 5.94zm31.95-19.83h-20.64c-1.755 0-2.88-1.08-2.88-2.835V2.82c0-1.725 1.14-2.82 2.85-2.82h41.4c1.725 0 2.85 1.095 2.865 2.82v28.17c0 1.755-1.125 2.85-2.88 2.85l-20.715-.015zm-.015-2.865h19.86c.855 0 .855 0 .855-.84V3.735c0-.87 0-.87-.885-.87H31.624c-.87 0-.885 0-.885.87v26.34c0 .885 0 .885.9.885h19.77z" fill="#d27228"/><path d="M51.409 30.96H31.654c-.9 0-.9 0-.9-.885V3.735c0-.855 0-.87.885-.87h39.615c.87 0 .87 0 .885.87V30.12c0 .84 0 .84-.855.84H51.409z"/><path d="M31.159 28.545l-5.25-4.32c0 3.99-.195 7.425.045 10.815.33 4.665.255 4.89-4.5 4.89-2.895 0-5.805-.015-8.7 0-1.38.015-2.49-.045-2.895-1.83-.195-.87-1.17-1.62-1.92-2.295L1.354 30.12c-1.59-1.41-1.83-3.105-.45-4.71 2.715-3.21 5.415-6.465 8.43-9.375 1.215-1.17 3.27-1.485 5.19-2.295l1.59 5.445 1.08-3.075.72-.09 1.29 2.955 1.275-4.95c2.715.345 4.77 1.125 6.645 3.195 6.195 6.855 4.815 6.015 11.37 1.785 1.77-1.14 3.465-2.4 5.175-3.585 1.335 4.485 1.335 4.605-2.235 7.29-2.325 1.74-4.68 3.45-7.125 4.98-.885.555-2.115.57-3.195.84l.045.015zm-21.12 1.77l-.495-6.405c-3.825 3.405-3.75 4.26.495 6.405zm12.24-24.42c-.03 3.42-2.28 6.93-4.47 6.975-2.16.045-4.365-3.015-4.695-6.525-.285-2.865 1.74-5.22 4.515-5.28 2.73-.06 4.665 1.95 4.65 4.83zM54.904 24.48l-.51-.36c.285-.6-1.005-4.53-1.545-5.445-.51-.855-2.265-2.31-2.31-5.01S52.924 7.5 56.824 7.5s6.375 3.315 6.24 5.985-1.845 4.35-2.43 5.31c-.6.96-1.635 4.56-1.5 5.1l-.405.405-3.825.18zm1.575-17.895c-.225 0-.39-.18-.39-.39l.03-2.265c.004-.214.176-.386.39-.39.214.004.386.176.39.39l-.03 2.265c-.004.214-.176.386-.39.39zm-7.381 4.83c-.045 0-.09-.015-.135-.03l-2.265-.825a.39.39 0 0 1-.225-.495.39.39 0 0 1 .495-.225l2.265.825a.39.39 0 0 1 .225.495c-.045.165-.195.255-.36.255zm15.42.33c-.165 0-.315-.105-.36-.255a.39.39 0 0 1 .225-.495l2.265-.825a.39.39 0 0 1 .495.225.39.39 0 0 1-.225.495l-2.265.84c-.045.015-.09.015-.135.015zm1.08 6.765a.4.4 0 0 1-.18-.045l-2.19-1.125a.389.389 0 1 1 .36-.69l2.19 1.125a.38.38 0 0 1 .165.525c-.06.135-.195.21-.345.21zm-17.895.045c-.15 0-.285-.075-.345-.21a.4.4 0 0 1 .18-.525l2.16-1.08a.4.4 0 0 1 .525.18.4.4 0 0 1-.18.525l-2.16 1.08c-.06.015-.12.03-.18.03zm14.745-10.41c-.09 0-.165-.03-.24-.075a.4.4 0 0 1-.075-.54l1.5-1.95a.4.4 0 0 1 .54-.075.4.4 0 0 1 .075.54l-1.5 1.95a.37.37 0 0 1-.3.15zm-11.025-.09a.35.35 0 0 1-.3-.15l-1.5-1.89c-.135-.165-.105-.42.06-.555s.42-.105.555.06l1.5 1.89c.135.165.105.42-.06.555-.075.06-.165.09-.255.09zm4.92 18.165c-1.14 0-2.01-.345-2.4-.945-.09-.135-.045-.315.09-.405s.315-.045.405.09c.27.435 1.005.69 1.935.675 1.2-.015 2.37-.45 2.73-1.02.09-.135.27-.18.405-.09s.18.27.09.405c-.54.885-2.055 1.29-3.225 1.305 0-.015-.015-.015-.03-.015zm.135 1.29c-1.14 0-2.01-.345-2.4-.945-.09-.135-.045-.315.09-.405s.315-.045.405.09c.27.435.99.675 1.935.675 1.2-.015 2.37-.45 2.73-1.02.09-.135.27-.18.405-.09s.18.27.09.405c-.54.885-2.055 1.29-3.225 1.305 0-.015-.015-.015-.03-.015zm2.445.24c0 .165.015.54-.15.765-.135.195-.315.375-.525.48a4.32 4.32 0 0 1-.465.195c-.12.045-.18.24-.255.345a.59.59 0 0 1-.285.255c-.045.015-.09.015-.15.03-.045.015-.045.06-.045.06h-.36s0-.06-.045-.06c-.045-.015-.09 0-.15-.03a.59.59 0 0 1-.285-.255c-.075-.12-.135-.315-.255-.345a1.8 1.8 0 0 1-.465-.195c-.21-.12-.375-.285-.525-.48-.165-.225-.15-.63-.15-.765 1.575.39 2.52.39 4.11 0z" fill="#d27228"/><path d="M55.324 23.58l-.405-1.71c.015-.405-.795-3.555-1.215-4.275-.405-.675-1.77-1.815-1.8-3.93-.045-2.115 1.86-4.83 4.92-4.83s5.01 2.61 4.905 4.695-1.44 3.42-1.905 4.17-1.29 3.585-1.185 3.99c-.045.03-.285 1.71-.33 1.74l-2.985.15z"/></g></symbol></svg>