<?xml version="1.0" encoding="UTF-8"?>
<svg width="1200pt" height="1200pt" version="1.1" viewBox="0 0 1200 1200" xmlns="http://www.w3.org/2000/svg">
 <path d="m672.41 186.32c12.316 2.1406 24.422 4.8047 36.254 7.9648 11.992 3.2031 23.84 6.9609 35.477 11.211l78.93-102.88c5.7812-7.582 16.441-9.2539 24.25-4.0234l64.234 37.051c7.8945 4.5352 11.027 14.203 7.625 22.406l-49.676 119.96c9.668 8.0664 18.836 16.441 27.441 25.043 8.6875 8.6875 17.078 17.859 25.086 27.41l119.95-49.707c8.3906-3.4453 17.93-0.042969 22.336 7.5977l37.699 65.254c4.5781 7.9102 2.4531 17.871-4.6328 23.273l-102.88 78.918c4.2656 11.609 8.0078 23.441 11.211 35.434 3.1758 11.863 5.8398 23.996 7.9922 36.355l128.62 16.922c9.043 1.1758 15.617 8.9023 15.617 17.789l0.058594 75.375c0 9.6367-7.5977 17.531-17.137 17.984l-127.18 16.695c-2.1406 12.332-4.8047 24.434-7.9648 36.285-3.2188 12.02-6.9727 23.883-11.227 35.52l102.88 78.93c7.582 5.7812 9.2539 16.441 4.0234 24.25l-37.051 64.219c-4.5352 7.8945-14.203 11.027-22.406 7.625l-119.99-49.676c-8.0781 9.6797-16.457 18.836-25.074 27.453-8.6875 8.6875-17.828 17.051-27.367 25.031l49.719 120c3.4453 8.3906 0.042969 17.93-7.5977 22.336l-65.254 37.699c-7.9102 4.5781-17.871 2.4531-23.273-4.6328l-78.973-102.96c-11.637 4.2539-23.484 8.0234-35.477 11.238-11.836 3.1602-23.926 5.8242-36.254 7.9648l-16.938 128.68c-1.1758 9.043-8.9023 15.617-17.789 15.617l-75.359 0.058594c-9.6367 0-17.52-7.5977-17.973-17.137l-16.738-127.21c-12.344-2.1562-24.465-4.8203-36.312-7.9922-12.004-3.2031-23.84-6.9609-35.461-11.227l-78.961 102.96c-5.625 7.3711-15.875 9.1719-23.629 4.4375l-64.898-37.488c-8.0508-4.6641-11.125-14.656-7.3398-22.945l49.48-119.45c-9.4258-7.8945-18.566-16.285-27.367-25.086-8.7578-8.7461-17.105-17.859-25.059-27.355l-120 49.719c-8.8594 3.6719-18.992-0.28516-23.09-8.8281l-37.008-64.105c-4.5195-7.8945-2.3945-17.801 4.6641-23.172l102.9-79.004c-4.2539-11.637-8.0078-23.484-11.227-35.504-3.1602-11.82-5.8242-23.926-7.9648-36.254l-128.66-16.895c-9.043-1.1758-15.617-8.9023-15.617-17.789l-0.058593-75.359c0-9.6367 7.5977-17.52 17.121-17.973l127.22-16.754c2.1406-12.316 4.8047-24.422 7.9648-36.27 3.2188-12.02 6.9727-23.855 11.227-35.488l-102.93-78.945c-7.3711-5.625-9.1719-15.875-4.4375-23.629l37.488-64.898c4.6641-8.0508 14.656-11.125 22.945-7.3398l119.44 49.48c7.9922-9.5391 16.371-18.695 25.086-27.41 8.7461-8.7578 17.871-17.105 27.367-25.059l-49.719-119.96c-3.6719-8.8594 0.28516-19.008 8.8281-23.09l64.105-36.992c7.8945-4.5195 17.801-2.3945 23.172 4.6641l78.973 102.88c11.621-4.2656 23.473-8.0234 35.477-11.227 11.836-3.1602 23.953-5.8398 36.285-7.9805l16.922-128.65c1.1758-9.043 8.9023-15.617 17.789-15.617l75.359-0.058594c9.6367 0 17.52 7.5977 17.973 17.121l16.754 127.21zm-5.4297 530.93c-5.457 14.883-6.6055 31.039-3.4141 46.434l0.085938 0.28516c3.2734 15.492 10.898 30.246 22.934 42.277 16.512 16.496 38.184 24.762 59.824 24.762 21.672 0.015625 43.328-8.2617 59.84-24.762 16.496-16.496 24.762-38.168 24.762-59.812 0-21.672-8.2617-43.344-24.762-59.84-12.105-12.105-26.973-19.758-42.562-23.004-15.391-3.1875-31.551-2.0703-46.434 3.3867l-69.012-68.98-50.246 50.246 68.98 69.012zm149.74-313.97-20.012-20.012c-1.0469-1.0352-2.6641-1.1914-3.8828-0.45312l-36.172 18.426-0.80859 0.58203-18.512 18.523c-0.67969 0.67969-0.99219 1.5586-0.93359 2.4531v16.301l-206.16 206.2c-5.1875-4.1797-11.535-6.2773-17.871-6.2773-7.2695 0-14.57 2.75-20.098 8.2773l-101.64 101.62c-5.5 5.543-8.2773 12.828-8.2773 20.113 0 7.2578 2.7773 14.57 8.3047 20.098l20.211 20.211c5.5273 5.5273 12.84 8.3047 20.098 8.3047 7.2852 0 14.57-2.7773 20.113-8.2773l101.62-101.64c5.5273-5.5273 8.2773-12.828 8.2773-20.098 0-6.3359-2.0977-12.684-6.2773-17.871l206.2-206.16h16.527c0.86328 0 1.6602-0.36719 2.2266-0.93359l18.539-18.512c0.29688-0.29688 0.52344-0.66797 0.67969-1.0195l18.426-36.184c0.63672-1.2461 0.35547-2.7227-0.56641-3.6562zm-214.73 148.46-89.789-89.789 3.6562-3.6836c0.76562-0.73828 1.0469-1.7422 0.90625-2.707l-5.2148-62.59c-0.11328-1.4453-1.1914-2.5938-2.5352-2.8477l-78.465-21.035c-1.1328-0.29687-2.2812 0.058594-3.0625 0.80859l-7.9375 7.9375c-1.2344 1.2344-1.2344 3.2461 0 4.4648l26.59 26.617-7.8516 29.383-29.383 7.8516-26.602-26.59c-1.2188-1.2344-3.2305-1.2344-4.4648 0l-7.9375 7.9219c-0.87891 0.89453-1.1328 2.1836-0.75 3.2734l21.004 78.465c0.36719 1.3594 1.543 2.2695 2.8789 2.3398l62.758 5.2422c0.93359 0.070313 1.8438-0.28516 2.4648-0.92188l3.6992-3.6719 89.789 89.773 50.246-50.246zm111.18 168.2-8.8008 32.867c-0.89453 3.3594 0.15625 6.7891 2.4648 9.0977l24.066 24.109c2.6367 2.6523 6.4922 3.4023 9.8086 2.2539l32.215-8.6328c3.4141-0.90625 5.8945-3.5859 6.7188-6.7461l8.8008-32.867c0.90625-3.375-0.15625-6.7891-2.4531-9.0977l-24.066-24.121c-2.6641-2.6641-6.4922-3.3867-9.8359-2.2383l-32.203 8.6172c-3.4141 0.90625-5.8828 3.5703-6.7188 6.7617zm-113.18-449.96c182.25 0 330.01 147.76 330.01 330.01s-147.76 330.01-330.01 330.01-330.01-147.76-330.01-330.01 147.76-330.01 330.01-330.01z" fill="#ffffff" fill-rule="evenodd"/>
</svg>
